<?xml version="1.0" encoding="UTF-8" standalone="no"?>
<!-- Created with Inkscape (http://www.inkscape.org/) -->

<svg
   xmlns:dc="http://purl.org/dc/elements/1.1/"
   xmlns:cc="http://creativecommons.org/ns#"
   xmlns:rdf="http://www.w3.org/1999/02/22-rdf-syntax-ns#"
   xmlns:svg="http://www.w3.org/2000/svg"
   xmlns="http://www.w3.org/2000/svg"
   version="1.1"
   width="40.447201mm"
   height="81.3591mm"
   viewBox="0 0 5.74929 11.5646"
   id="svg2"
   xml:space="preserve"
   style="fill-rule:evenodd"><metadata
   id="metadata22"><rdf:RDF><cc:Work
       rdf:about=""><dc:format>image/svg+xml</dc:format><dc:type
         rdf:resource="http://purl.org/dc/dcmitype/StillImage" /><dc:title></dc:title></cc:Work></rdf:RDF></metadata>
 <defs
   id="defs4">
  <style
   type="text/css"
   id="style6" />
 
 
  
  
 
   
   
  
    
    
   <style
   type="text/css"
   id="style6-5" />
  
  
  
 
   
   
  
    
    
   </defs>
 <path
   d="m 0.0317832,2.92073 0,8.61212 5.68572,0 0,-8.61212 -3.696e-4,0 c 2.417e-4,-0.015337 3.696e-4,-0.030703 3.696e-4,-0.046083 0,-1.56981 -1.27306,-2.84286 -2.84286,-2.84286 -1.5698,0 -2.84286,1.27305 -2.84286,2.84286 0,0.01538 1.1371e-4,0.030746 3.6957e-4,0.046083 l -3.6957e-4,0 z"
   id="_112819656"
   style="fill:#626d55" />
<path
   d="m 1.3824617,9.6902662 2.9524122,-1.6905927 0,0.6370354 -2.9524122,1.6905921 z"
   id="rect3020"
   style="fill:#e6dccd;fill-opacity:1;fill-rule:evenodd;stroke:none" /><path
   d="m 1.3824617,8.4529484 2.9524122,-1.6905927 0,0.6370354 -2.9524122,1.6905921 z"
   id="path3060"
   style="fill:#e6dccd;fill-opacity:1;fill-rule:evenodd;stroke:none" /><path
   d="m 1.3824617,7.2156142 2.9524122,-1.6905927 0,0.6370354 -2.9524122,1.6905921 z"
   id="path3062"
   style="fill:#e6dccd;fill-opacity:1;fill-rule:evenodd;stroke:none" /><path
   d="m 1.3824617,5.6965309 2.9524122,-1.6905927 0,0.6370354 -2.9524122,1.6905921 z"
   id="path3079"
   style="fill:#e6dccd;fill-opacity:1;fill-rule:evenodd;stroke:none" /><path
   d="m 1.3824617,4.4592079 2.9524122,-1.6905927 0,0.6370354 -2.9524122,1.6905921 z"
   id="path3081"
   style="fill:#e6dccd;fill-opacity:1;fill-rule:evenodd;stroke:none" /></svg>