<?xml version="1.0" encoding="UTF-8" standalone="no"?>
<!-- Created with Inkscape (http://www.inkscape.org/) -->

<svg
   xmlns:dc="http://purl.org/dc/elements/1.1/"
   xmlns:cc="http://creativecommons.org/ns#"
   xmlns:rdf="http://www.w3.org/1999/02/22-rdf-syntax-ns#"
   xmlns:svg="http://www.w3.org/2000/svg"
   xmlns="http://www.w3.org/2000/svg"
   version="1.1"
   width="40.447102mm"
   height="81.359001mm"
   viewBox="0 0 4.47662 9.00468"
   id="svg2"
   xml:space="preserve"
   style="fill-rule:evenodd"><metadata
   id="metadata22"><rdf:RDF><cc:Work
       rdf:about=""><dc:format>image/svg+xml</dc:format><dc:type
         rdf:resource="http://purl.org/dc/dcmitype/StillImage" /><dc:title></dc:title></cc:Work></rdf:RDF></metadata>
 <defs
   id="defs4">
  <style
   type="text/css"
   id="style6" />
 
  
  
 
   
   
  
    
    
   
    
    
   </defs>
 <path
   d="m 0.0247477,2.27419 0,6.70574 4.42712,0 0,-6.70574 -2.878e-4,0 c 1.882e-4,-0.011942 2.878e-4,-0.023896 2.878e-4,-0.035882 0,-1.22231 -0.991258,-2.21356 -2.21357,-2.21356 -1.2223,0 -2.21356,0.991247 -2.21356,2.21356 0,0.011987 8.854e-5,0.02394 2.767e-4,0.035882 l -2.767e-4,0 z"
   id="_115219888"
   style="fill:#e6dccd" /><path
   d="m 3.72259,8.97993 -2.96857,0 c 0,-1.93489 0,-4.65169 0,-6.58657 0,-0.850807 0.664712,-1.54076 1.4843,-1.54076 0.819573,0 1.48427,0.689958 1.48427,1.54076 0,1.93488 0,4.65168 0,6.58657 z"
   id="path17"
   style="fill:#626d55" />
</svg>