<?xml version="1.0" encoding="UTF-8" standalone="no"?>
<!-- Created with Inkscape (http://www.inkscape.org/) -->

<svg
   xmlns:dc="http://purl.org/dc/elements/1.1/"
   xmlns:cc="http://creativecommons.org/ns#"
   xmlns:rdf="http://www.w3.org/1999/02/22-rdf-syntax-ns#"
   xmlns:svg="http://www.w3.org/2000/svg"
   xmlns="http://www.w3.org/2000/svg"
   version="1.1"
   width="40.447102mm"
   height="81.358902mm"
   viewBox="0 0 4.47662 9.00467"
   id="svg2"
   xml:space="preserve"
   style="fill-rule:evenodd"><metadata
   id="metadata28"><rdf:RDF><cc:Work
       rdf:about=""><dc:format>image/svg+xml</dc:format><dc:type
         rdf:resource="http://purl.org/dc/dcmitype/StillImage" /><dc:title></dc:title></cc:Work></rdf:RDF></metadata>
 <defs
   id="defs4">
  <style
   type="text/css"
   id="style6" />
 
  
  
 
   
   
   
  
    
    
   
    
    
   </defs>
 <path
   d="m 0.0247477,2.27419 0,6.70574 4.42712,0 0,-6.70574 -2.988e-4,0 c 1.992e-4,-0.011942 2.988e-4,-0.023896 2.988e-4,-0.035882 0,-1.22231 -0.991258,-2.21356 -2.21357,-2.21356 -1.2223,0 -2.21356,0.991247 -2.21356,2.21356 0,0.011987 8.854e-5,0.02394 2.767e-4,0.035882 l -2.767e-4,0 z"
   id="_112817760"
   style="fill:#e6dccd" /><path
   d="m 0.754019,8.19802 2.96857,0 c 0,-1.93488 0,-3.8698 0,-5.80468 0,-0.850807 -0.664712,-1.54076 -1.48429,-1.54076 -0.819584,0 -1.48429,0.689958 -1.48429,1.54076 0,1.93488 0,3.8698 0,5.80468 z"
   id="path17"
   style="fill:#626d55" />
<path
   d="m 71.59375,160.84375 -36.6875,21.9375 0,20.6875 36.6875,-21.90625 36.6875,21.90625 0,-20.6875 -36.6875,-21.9375 z"
   transform="matrix(0.0312359,0,0,0.0312359,0,-1.1416956e-6)"
   id="rect3028"
   style="fill:#e6dccd;fill-opacity:1;stroke:none" /><path
   d="m 2.2362952,6.0305198 -1.1459671,0.6852375 0,0.6461927 1.1459671,-0.6842614 1.1459671,0.6842614 0,-0.6461927 -1.1459671,-0.6852375 z"
   id="path3034"
   style="fill:#e6dccd;fill-opacity:1;stroke:none" /></svg>