<?xml version="1.0" encoding="UTF-8" standalone="no"?>
<!-- Created with Inkscape (http://www.inkscape.org/) -->

<svg
   xmlns:dc="http://purl.org/dc/elements/1.1/"
   xmlns:cc="http://creativecommons.org/ns#"
   xmlns:rdf="http://www.w3.org/1999/02/22-rdf-syntax-ns#"
   xmlns:svg="http://www.w3.org/2000/svg"
   xmlns="http://www.w3.org/2000/svg"
   xmlns:xlink="http://www.w3.org/1999/xlink"
   version="1.1"
   width="40.447102mm"
   height="81.358902mm"
   viewBox="0 0 66.6301 134.026"
   id="svg2"
   xml:space="preserve"
   style="fill-rule:evenodd"><metadata
   id="metadata645"><rdf:RDF><cc:Work
       rdf:about=""><dc:format>image/svg+xml</dc:format><dc:type
         rdf:resource="http://purl.org/dc/dcmitype/StillImage" /><dc:title></dc:title></cc:Work></rdf:RDF></metadata>
 <defs
   id="defs4">
  <style
   type="text/css"
   id="style6" />
 <linearGradient
   x1="150.09099"
   y1="113.06593"
   x2="152.73506"
   y2="91.903961"
   id="linearGradient3857"
   xlink:href="#linearGradient3806"
   gradientUnits="userSpaceOnUse"
   gradientTransform="matrix(-1,0,0,1,172.6,-24.0137)" /><linearGradient
   x1="92.066544"
   y1="149.69492"
   x2="109.70607"
   y2="130.98305"
   id="linearGradient3853"
   xlink:href="#linearGradient3806"
   gradientUnits="userSpaceOnUse"
   gradientTransform="matrix(-1,0,0,1,172.6,-24.0137)" /><linearGradient
   x1="128.54237"
   y1="125.69491"
   x2="140.12811"
   y2="107.0519"
   id="linearGradient3849"
   xlink:href="#linearGradient3806"
   gradientUnits="userSpaceOnUse"
   gradientTransform="matrix(-1,0,0,1,172.6,-24.0137)" /><linearGradient
   x1="103.22386"
   y1="144.57872"
   x2="125.97288"
   y2="126.17776"
   id="linearGradient3846"
   xlink:href="#linearGradient3806"
   gradientUnits="userSpaceOnUse"
   gradientTransform="matrix(-1,0,0,1,172.6,-24.0137)" /><linearGradient
   x1="118.37289"
   y1="137.49153"
   x2="133.42372"
   y2="118.65607"
   id="linearGradient3843"
   xlink:href="#linearGradient3806"
   gradientUnits="userSpaceOnUse"
   gradientTransform="matrix(-1,0,0,1,172.6,-24.0137)" /><linearGradient
   x1="133.41924"
   y1="96.996918"
   x2="130.01176"
   y2="84.280075"
   id="linearGradient3839"
   xlink:href="#linearGradient3806"
   gradientUnits="userSpaceOnUse"
   gradientTransform="matrix(-1,0,0,1,172.6,-24.0137)" /><linearGradient
   x1="109.70607"
   y1="94.372879"
   x2="97.016945"
   y2="66.858604"
   id="linearGradient3836"
   xlink:href="#linearGradient3806"
   gradientUnits="userSpaceOnUse"
   gradientTransform="matrix(-1,0,0,1,172.6,-24.0137)" /><linearGradient
   x1="129.35593"
   y1="88.474571"
   x2="124.76414"
   y2="76.881355"
   id="linearGradient3833"
   xlink:href="#linearGradient3806"
   gradientUnits="userSpaceOnUse"
   gradientTransform="matrix(-1,0,0,1,172.6,-24.0137)" /><linearGradient
   x1="119.88651"
   y1="101.49152"
   x2="111.66102"
   y2="64.271187"
   id="linearGradient3830"
   xlink:href="#linearGradient3806"
   gradientUnits="userSpaceOnUse"
   gradientTransform="matrix(-1,0,0,1,172.6,-24.0137)" /><linearGradient
   x1="150.09099"
   y1="113.06593"
   x2="152.73506"
   y2="91.903961"
   id="linearGradient3827"
   xlink:href="#linearGradient3806"
   gradientUnits="userSpaceOnUse"
   gradientTransform="translate(-22.6001,-24.0137)" /><linearGradient
   x1="97.600105"
   y1="202.37288"
   x2="97.600105"
   y2="135.86441"
   id="linearGradient3824"
   xlink:href="#linearGradient3806"
   gradientUnits="userSpaceOnUse"
   gradientTransform="translate(-22.6001,-24.0137)" /><linearGradient
   x1="97.600105"
   y1="134.23729"
   x2="98.440681"
   y2="40.783253"
   id="linearGradient3821"
   xlink:href="#linearGradient3806"
   gradientUnits="userSpaceOnUse"
   gradientTransform="translate(-22.6001,-24.0137)" /><linearGradient
   x1="92.066544"
   y1="149.69492"
   x2="109.70607"
   y2="130.98305"
   id="linearGradient3818"
   xlink:href="#linearGradient3806"
   gradientUnits="userSpaceOnUse"
   gradientTransform="translate(-22.6001,-24.0137)" /><linearGradient
   x1="128.54237"
   y1="125.69491"
   x2="140.12811"
   y2="107.0519"
   id="linearGradient3815"
   xlink:href="#linearGradient3806"
   gradientUnits="userSpaceOnUse"
   gradientTransform="translate(-22.6001,-24.0137)" /><linearGradient
   x1="103.22386"
   y1="144.57872"
   x2="125.97288"
   y2="126.17776"
   id="linearGradient3811"
   xlink:href="#linearGradient3806"
   gradientUnits="userSpaceOnUse"
   gradientTransform="translate(-22.6001,-24.0137)" /><linearGradient
   x1="118.37289"
   y1="137.49153"
   x2="133.42372"
   y2="118.65607"
   id="linearGradient3808"
   xlink:href="#linearGradient3806"
   gradientUnits="userSpaceOnUse"
   gradientTransform="translate(-22.6001,-24.0137)" /><linearGradient
   x1="113.61648"
   y1="107.23558"
   x2="113.61648"
   y2="83.760223"
   id="linearGradient4051"
   xlink:href="#linearGradient3806"
   gradientUnits="userSpaceOnUse" /><radialGradient
   cx="113.61648"
   cy="95.497902"
   r="11.489363"
   fx="113.61648"
   fy="95.497902"
   id="radialGradient4049"
   xlink:href="#linearGradient3814"
   gradientUnits="userSpaceOnUse" /><linearGradient
   x1="119.88651"
   y1="101.49152"
   x2="111.66102"
   y2="64.271187"
   id="linearGradient4047"
   xlink:href="#linearGradient3806"
   gradientUnits="userSpaceOnUse" /><linearGradient
   x1="129.35593"
   y1="88.474571"
   x2="124.76414"
   y2="76.881355"
   id="linearGradient4045"
   xlink:href="#linearGradient3806"
   gradientUnits="userSpaceOnUse" /><linearGradient
   x1="109.70607"
   y1="94.372879"
   x2="97.016945"
   y2="66.858604"
   id="linearGradient4043"
   xlink:href="#linearGradient3806"
   gradientUnits="userSpaceOnUse" /><linearGradient
   x1="133.41924"
   y1="96.996918"
   x2="130.01176"
   y2="84.280075"
   id="linearGradient4041"
   xlink:href="#linearGradient3806"
   gradientUnits="userSpaceOnUse" /><linearGradient
   x1="118.37289"
   y1="137.49153"
   x2="133.42372"
   y2="118.65607"
   id="linearGradient4039"
   xlink:href="#linearGradient3806"
   gradientUnits="userSpaceOnUse" /><linearGradient
   x1="103.22386"
   y1="144.57872"
   x2="125.97288"
   y2="126.17776"
   id="linearGradient4037"
   xlink:href="#linearGradient3806"
   gradientUnits="userSpaceOnUse" /><linearGradient
   x1="128.54237"
   y1="125.69491"
   x2="140.12811"
   y2="107.0519"
   id="linearGradient4035"
   xlink:href="#linearGradient3806"
   gradientUnits="userSpaceOnUse" /><linearGradient
   x1="92.066544"
   y1="149.69492"
   x2="109.70607"
   y2="130.98305"
   id="linearGradient4033"
   xlink:href="#linearGradient3806"
   gradientUnits="userSpaceOnUse" /><linearGradient
   x1="97.600105"
   y1="134.23729"
   x2="98.440681"
   y2="40.783253"
   id="linearGradient4031"
   xlink:href="#linearGradient3806"
   gradientUnits="userSpaceOnUse" /><linearGradient
   x1="97.600105"
   y1="202.37288"
   x2="97.600105"
   y2="135.86441"
   id="linearGradient4029"
   xlink:href="#linearGradient3806"
   gradientUnits="userSpaceOnUse" /><linearGradient
   x1="150.09099"
   y1="113.06593"
   x2="152.73506"
   y2="91.903961"
   id="linearGradient4027"
   xlink:href="#linearGradient3806"
   gradientUnits="userSpaceOnUse" /><linearGradient
   x1="119.88651"
   y1="101.49152"
   x2="111.66102"
   y2="64.271187"
   id="linearGradient4025"
   xlink:href="#linearGradient3806"
   gradientUnits="userSpaceOnUse"
   gradientTransform="matrix(-1,0,0,1,195.2,0)" /><linearGradient
   x1="129.35593"
   y1="88.474571"
   x2="124.76414"
   y2="76.881355"
   id="linearGradient4023"
   xlink:href="#linearGradient3806"
   gradientUnits="userSpaceOnUse"
   gradientTransform="matrix(-1,0,0,1,195.2,0)" /><linearGradient
   x1="109.70607"
   y1="94.372879"
   x2="97.016945"
   y2="66.858604"
   id="linearGradient4021"
   xlink:href="#linearGradient3806"
   gradientUnits="userSpaceOnUse"
   gradientTransform="matrix(-1,0,0,1,195.2,0)" /><linearGradient
   x1="133.41924"
   y1="96.996918"
   x2="130.01176"
   y2="84.280075"
   id="linearGradient4019"
   xlink:href="#linearGradient3806"
   gradientUnits="userSpaceOnUse"
   gradientTransform="matrix(-1,0,0,1,195.2,0)" /><linearGradient
   x1="118.37289"
   y1="137.49153"
   x2="133.42372"
   y2="118.65607"
   id="linearGradient4017"
   xlink:href="#linearGradient3806"
   gradientUnits="userSpaceOnUse"
   gradientTransform="matrix(-1,0,0,1,195.2,0)" /><linearGradient
   x1="103.22386"
   y1="144.57872"
   x2="125.97288"
   y2="126.17776"
   id="linearGradient4015"
   xlink:href="#linearGradient3806"
   gradientUnits="userSpaceOnUse"
   gradientTransform="matrix(-1,0,0,1,195.2,0)" /><linearGradient
   x1="128.54237"
   y1="125.69491"
   x2="140.12811"
   y2="107.0519"
   id="linearGradient4013"
   xlink:href="#linearGradient3806"
   gradientUnits="userSpaceOnUse"
   gradientTransform="matrix(-1,0,0,1,195.2,0)" /><linearGradient
   x1="92.066544"
   y1="149.69492"
   x2="109.70607"
   y2="130.98305"
   id="linearGradient4011"
   xlink:href="#linearGradient3806"
   gradientUnits="userSpaceOnUse"
   gradientTransform="matrix(-1,0,0,1,195.2,0)" /><linearGradient
   x1="150.09099"
   y1="113.06593"
   x2="152.73506"
   y2="91.903961"
   id="linearGradient4009"
   xlink:href="#linearGradient3806"
   gradientUnits="userSpaceOnUse"
   gradientTransform="matrix(-1,0,0,1,195.2,0)" /><mask
   id="id1-8"><linearGradient
     x1="180.092"
     y1="105.833"
     x2="106.409"
     y2="107.504"
     id="id2-8"
     gradientUnits="userSpaceOnUse"><stop
       id="stop13-2"
       style="stop-color:#ffffff;stop-opacity:1"
       offset="0" /><stop
       id="stop15-4"
       style="stop-color:#ffffff;stop-opacity:0"
       offset="1" /></linearGradient><rect
     width="261.25101"
     height="90.103104"
     x="12.6248"
     y="61.616798"
     id="rect17-5"
     style="fill:url(#id2-8)" /></mask><style
   type="text/css"
   id="style6-5" /><mask
   id="id1"><linearGradient
     x1="180.092"
     y1="105.833"
     x2="106.409"
     y2="107.504"
     id="id2"
     gradientUnits="userSpaceOnUse"><stop
       id="stop13"
       style="stop-color:#ffffff;stop-opacity:1"
       offset="0" /><stop
       id="stop15"
       style="stop-color:#ffffff;stop-opacity:0"
       offset="1" /></linearGradient><rect
     width="261.25101"
     height="90.103104"
     x="12.6248"
     y="61.616798"
     id="rect17"
     style="fill:url(#id2) #000000" /></mask><style
   type="text/css"
   id="style6-57" /><linearGradient
   id="linearGradient3806"><stop
     id="stop3808"
     style="stop-color:#6a6a6a;stop-opacity:1"
     offset="0" /><stop
     id="stop3810"
     style="stop-color:#e6e6e6;stop-opacity:1"
     offset="1" /></linearGradient><linearGradient
   id="linearGradient3814"><stop
     id="stop3816"
     style="stop-color:#000000;stop-opacity:1"
     offset="0" /><stop
     id="stop3826"
     style="stop-color:#6c6c6c;stop-opacity:1"
     offset="0.62953144" /><stop
     id="stop3824"
     style="stop-color:#e6e6e6;stop-opacity:1"
     offset="0.79758716" /><stop
     id="stop3818"
     style="stop-color:#666666;stop-opacity:1"
     offset="1" /></linearGradient><linearGradient
   x1="150.09099"
   y1="113.06593"
   x2="152.73506"
   y2="91.903961"
   id="linearGradient4014"
   xlink:href="#linearGradient3806"
   gradientUnits="userSpaceOnUse"
   gradientTransform="matrix(-1,0,0,1,172.6,-24.0137)" /><linearGradient
   x1="92.066544"
   y1="149.69492"
   x2="109.70607"
   y2="130.98305"
   id="linearGradient4016"
   xlink:href="#linearGradient3806"
   gradientUnits="userSpaceOnUse"
   gradientTransform="matrix(-1,0,0,1,172.6,-24.0137)" /><linearGradient
   x1="128.54237"
   y1="125.69491"
   x2="140.12811"
   y2="107.0519"
   id="linearGradient4018"
   xlink:href="#linearGradient3806"
   gradientUnits="userSpaceOnUse"
   gradientTransform="matrix(-1,0,0,1,172.6,-24.0137)" /><linearGradient
   x1="103.22386"
   y1="144.57872"
   x2="125.97288"
   y2="126.17776"
   id="linearGradient4020"
   xlink:href="#linearGradient3806"
   gradientUnits="userSpaceOnUse"
   gradientTransform="matrix(-1,0,0,1,172.6,-24.0137)" /><linearGradient
   x1="118.37289"
   y1="137.49153"
   x2="133.42372"
   y2="118.65607"
   id="linearGradient4022"
   xlink:href="#linearGradient3806"
   gradientUnits="userSpaceOnUse"
   gradientTransform="matrix(-1,0,0,1,172.6,-24.0137)" /><linearGradient
   x1="133.41924"
   y1="96.996918"
   x2="130.01176"
   y2="84.280075"
   id="linearGradient4024"
   xlink:href="#linearGradient3806"
   gradientUnits="userSpaceOnUse"
   gradientTransform="matrix(-1,0,0,1,172.6,-24.0137)" /><linearGradient
   x1="109.70607"
   y1="94.372879"
   x2="97.016945"
   y2="66.858604"
   id="linearGradient4026"
   xlink:href="#linearGradient3806"
   gradientUnits="userSpaceOnUse"
   gradientTransform="matrix(-1,0,0,1,172.6,-24.0137)" /><linearGradient
   x1="129.35593"
   y1="88.474571"
   x2="124.76414"
   y2="76.881355"
   id="linearGradient4028"
   xlink:href="#linearGradient3806"
   gradientUnits="userSpaceOnUse"
   gradientTransform="matrix(-1,0,0,1,172.6,-24.0137)" /><linearGradient
   x1="119.88651"
   y1="101.49152"
   x2="111.66102"
   y2="64.271187"
   id="linearGradient4030"
   xlink:href="#linearGradient3806"
   gradientUnits="userSpaceOnUse"
   gradientTransform="matrix(-1,0,0,1,172.6,-24.0137)" /><linearGradient
   x1="150.09099"
   y1="113.06593"
   x2="152.73506"
   y2="91.903961"
   id="linearGradient4032"
   xlink:href="#linearGradient3806"
   gradientUnits="userSpaceOnUse"
   gradientTransform="translate(-22.6001,-24.0137)" /><linearGradient
   x1="97.600105"
   y1="202.37288"
   x2="97.600105"
   y2="135.86441"
   id="linearGradient4034"
   xlink:href="#linearGradient3806"
   gradientUnits="userSpaceOnUse"
   gradientTransform="translate(-22.6001,-24.0137)" /><linearGradient
   x1="97.600105"
   y1="134.23729"
   x2="98.440681"
   y2="40.783253"
   id="linearGradient4036"
   xlink:href="#linearGradient3806"
   gradientUnits="userSpaceOnUse"
   gradientTransform="translate(-22.6001,-24.0137)" /><linearGradient
   x1="92.066544"
   y1="149.69492"
   x2="109.70607"
   y2="130.98305"
   id="linearGradient4038"
   xlink:href="#linearGradient3806"
   gradientUnits="userSpaceOnUse"
   gradientTransform="translate(-22.6001,-24.0137)" /><linearGradient
   x1="128.54237"
   y1="125.69491"
   x2="140.12811"
   y2="107.0519"
   id="linearGradient4040"
   xlink:href="#linearGradient3806"
   gradientUnits="userSpaceOnUse"
   gradientTransform="translate(-22.6001,-24.0137)" /><linearGradient
   x1="103.22386"
   y1="144.57872"
   x2="125.97288"
   y2="126.17776"
   id="linearGradient4042"
   xlink:href="#linearGradient3806"
   gradientUnits="userSpaceOnUse"
   gradientTransform="translate(-22.6001,-24.0137)" /><linearGradient
   x1="118.37289"
   y1="137.49153"
   x2="133.42372"
   y2="118.65607"
   id="linearGradient4044"
   xlink:href="#linearGradient3806"
   gradientUnits="userSpaceOnUse"
   gradientTransform="translate(-22.6001,-24.0137)" /><linearGradient
   x1="133.41924"
   y1="96.996918"
   x2="130.01176"
   y2="84.280075"
   id="linearGradient4046"
   xlink:href="#linearGradient3806"
   gradientUnits="userSpaceOnUse" /><linearGradient
   x1="109.70607"
   y1="94.372879"
   x2="97.016945"
   y2="66.858604"
   id="linearGradient4048"
   xlink:href="#linearGradient3806"
   gradientUnits="userSpaceOnUse" /><linearGradient
   x1="129.35593"
   y1="88.474571"
   x2="124.76414"
   y2="76.881355"
   id="linearGradient4050"
   xlink:href="#linearGradient3806"
   gradientUnits="userSpaceOnUse" /><linearGradient
   x1="119.88651"
   y1="101.49152"
   x2="111.66102"
   y2="64.271187"
   id="linearGradient4052"
   xlink:href="#linearGradient3806"
   gradientUnits="userSpaceOnUse" /><radialGradient
   cx="113.61648"
   cy="95.497902"
   r="11.489363"
   fx="113.61648"
   fy="95.497902"
   id="radialGradient4054"
   xlink:href="#linearGradient3814"
   gradientUnits="userSpaceOnUse" /><linearGradient
   x1="113.61648"
   y1="107.23558"
   x2="113.61648"
   y2="83.760223"
   id="linearGradient4056"
   xlink:href="#linearGradient3806"
   gradientUnits="userSpaceOnUse" /><linearGradient
   x1="150.09099"
   y1="113.06593"
   x2="152.73506"
   y2="91.903961"
   id="linearGradient4106"
   xlink:href="#linearGradient3806"
   gradientUnits="userSpaceOnUse"
   gradientTransform="matrix(-1,0,0,1,172.6,-24.0137)" /><linearGradient
   x1="92.066544"
   y1="149.69492"
   x2="109.70607"
   y2="130.98305"
   id="linearGradient4108"
   xlink:href="#linearGradient3806"
   gradientUnits="userSpaceOnUse"
   gradientTransform="matrix(-1,0,0,1,172.6,-24.0137)" /><linearGradient
   x1="128.54237"
   y1="125.69491"
   x2="140.12811"
   y2="107.0519"
   id="linearGradient4110"
   xlink:href="#linearGradient3806"
   gradientUnits="userSpaceOnUse"
   gradientTransform="matrix(-1,0,0,1,172.6,-24.0137)" /><linearGradient
   x1="103.22386"
   y1="144.57872"
   x2="125.97288"
   y2="126.17776"
   id="linearGradient4112"
   xlink:href="#linearGradient3806"
   gradientUnits="userSpaceOnUse"
   gradientTransform="matrix(-1,0,0,1,172.6,-24.0137)" /><linearGradient
   x1="118.37289"
   y1="137.49153"
   x2="133.42372"
   y2="118.65607"
   id="linearGradient4114"
   xlink:href="#linearGradient3806"
   gradientUnits="userSpaceOnUse"
   gradientTransform="matrix(-1,0,0,1,172.6,-24.0137)" /><linearGradient
   x1="133.41924"
   y1="96.996918"
   x2="130.01176"
   y2="84.280075"
   id="linearGradient4116"
   xlink:href="#linearGradient3806"
   gradientUnits="userSpaceOnUse"
   gradientTransform="matrix(-1,0,0,1,172.6,-24.0137)" /><linearGradient
   x1="109.70607"
   y1="94.372879"
   x2="97.016945"
   y2="66.858604"
   id="linearGradient4118"
   xlink:href="#linearGradient3806"
   gradientUnits="userSpaceOnUse"
   gradientTransform="matrix(-1,0,0,1,172.6,-24.0137)" /><linearGradient
   x1="129.35593"
   y1="88.474571"
   x2="124.76414"
   y2="76.881355"
   id="linearGradient4120"
   xlink:href="#linearGradient3806"
   gradientUnits="userSpaceOnUse"
   gradientTransform="matrix(-1,0,0,1,172.6,-24.0137)" /><linearGradient
   x1="119.88651"
   y1="101.49152"
   x2="111.66102"
   y2="64.271187"
   id="linearGradient4122"
   xlink:href="#linearGradient3806"
   gradientUnits="userSpaceOnUse"
   gradientTransform="matrix(-1,0,0,1,172.6,-24.0137)" /><linearGradient
   x1="150.09099"
   y1="113.06593"
   x2="152.73506"
   y2="91.903961"
   id="linearGradient4124"
   xlink:href="#linearGradient3806"
   gradientUnits="userSpaceOnUse"
   gradientTransform="translate(-22.6001,-24.0137)" /><linearGradient
   x1="97.600105"
   y1="202.37288"
   x2="97.600105"
   y2="135.86441"
   id="linearGradient4126"
   xlink:href="#linearGradient3806"
   gradientUnits="userSpaceOnUse"
   gradientTransform="translate(-22.6001,-24.0137)" /><linearGradient
   x1="97.600105"
   y1="134.23729"
   x2="98.440681"
   y2="40.783253"
   id="linearGradient4128"
   xlink:href="#linearGradient3806"
   gradientUnits="userSpaceOnUse"
   gradientTransform="translate(-22.6001,-24.0137)" /><linearGradient
   x1="92.066544"
   y1="149.69492"
   x2="109.70607"
   y2="130.98305"
   id="linearGradient4130"
   xlink:href="#linearGradient3806"
   gradientUnits="userSpaceOnUse"
   gradientTransform="translate(-22.6001,-24.0137)" /><linearGradient
   x1="128.54237"
   y1="125.69491"
   x2="140.12811"
   y2="107.0519"
   id="linearGradient4132"
   xlink:href="#linearGradient3806"
   gradientUnits="userSpaceOnUse"
   gradientTransform="translate(-22.6001,-24.0137)" /><linearGradient
   x1="103.22386"
   y1="144.57872"
   x2="125.97288"
   y2="126.17776"
   id="linearGradient4134"
   xlink:href="#linearGradient3806"
   gradientUnits="userSpaceOnUse"
   gradientTransform="translate(-22.6001,-24.0137)" /><linearGradient
   x1="118.37289"
   y1="137.49153"
   x2="133.42372"
   y2="118.65607"
   id="linearGradient4136"
   xlink:href="#linearGradient3806"
   gradientUnits="userSpaceOnUse"
   gradientTransform="translate(-22.6001,-24.0137)" /><linearGradient
   x1="133.41924"
   y1="96.996918"
   x2="130.01176"
   y2="84.280075"
   id="linearGradient4138"
   xlink:href="#linearGradient3806"
   gradientUnits="userSpaceOnUse" /><linearGradient
   x1="109.70607"
   y1="94.372879"
   x2="97.016945"
   y2="66.858604"
   id="linearGradient4140"
   xlink:href="#linearGradient3806"
   gradientUnits="userSpaceOnUse" /><linearGradient
   x1="129.35593"
   y1="88.474571"
   x2="124.76414"
   y2="76.881355"
   id="linearGradient4142"
   xlink:href="#linearGradient3806"
   gradientUnits="userSpaceOnUse" /><linearGradient
   x1="119.88651"
   y1="101.49152"
   x2="111.66102"
   y2="64.271187"
   id="linearGradient4144"
   xlink:href="#linearGradient3806"
   gradientUnits="userSpaceOnUse" /><radialGradient
   cx="113.61648"
   cy="95.497902"
   r="11.489363"
   fx="113.61648"
   fy="95.497902"
   id="radialGradient4146"
   xlink:href="#linearGradient3814"
   gradientUnits="userSpaceOnUse" /><linearGradient
   x1="113.61648"
   y1="107.23558"
   x2="113.61648"
   y2="83.760223"
   id="linearGradient4148"
   xlink:href="#linearGradient3806"
   gradientUnits="userSpaceOnUse" /><linearGradient
   x1="150.09099"
   y1="113.06593"
   x2="152.73506"
   y2="91.903961"
   id="linearGradient4198"
   xlink:href="#linearGradient3806"
   gradientUnits="userSpaceOnUse"
   gradientTransform="matrix(-1,0,0,1,172.6,-24.0137)" /><linearGradient
   x1="92.066544"
   y1="149.69492"
   x2="109.70607"
   y2="130.98305"
   id="linearGradient4200"
   xlink:href="#linearGradient3806"
   gradientUnits="userSpaceOnUse"
   gradientTransform="matrix(-1,0,0,1,172.6,-24.0137)" /><linearGradient
   x1="128.54237"
   y1="125.69491"
   x2="140.12811"
   y2="107.0519"
   id="linearGradient4202"
   xlink:href="#linearGradient3806"
   gradientUnits="userSpaceOnUse"
   gradientTransform="matrix(-1,0,0,1,172.6,-24.0137)" /><linearGradient
   x1="103.22386"
   y1="144.57872"
   x2="125.97288"
   y2="126.17776"
   id="linearGradient4204"
   xlink:href="#linearGradient3806"
   gradientUnits="userSpaceOnUse"
   gradientTransform="matrix(-1,0,0,1,172.6,-24.0137)" /><linearGradient
   x1="118.37289"
   y1="137.49153"
   x2="133.42372"
   y2="118.65607"
   id="linearGradient4206"
   xlink:href="#linearGradient3806"
   gradientUnits="userSpaceOnUse"
   gradientTransform="matrix(-1,0,0,1,172.6,-24.0137)" /><linearGradient
   x1="133.41924"
   y1="96.996918"
   x2="130.01176"
   y2="84.280075"
   id="linearGradient4208"
   xlink:href="#linearGradient3806"
   gradientUnits="userSpaceOnUse"
   gradientTransform="matrix(-1,0,0,1,172.6,-24.0137)" /><linearGradient
   x1="109.70607"
   y1="94.372879"
   x2="97.016945"
   y2="66.858604"
   id="linearGradient4210"
   xlink:href="#linearGradient3806"
   gradientUnits="userSpaceOnUse"
   gradientTransform="matrix(-1,0,0,1,172.6,-24.0137)" /><linearGradient
   x1="129.35593"
   y1="88.474571"
   x2="124.76414"
   y2="76.881355"
   id="linearGradient4212"
   xlink:href="#linearGradient3806"
   gradientUnits="userSpaceOnUse"
   gradientTransform="matrix(-1,0,0,1,172.6,-24.0137)" /><linearGradient
   x1="119.88651"
   y1="101.49152"
   x2="111.66102"
   y2="64.271187"
   id="linearGradient4214"
   xlink:href="#linearGradient3806"
   gradientUnits="userSpaceOnUse"
   gradientTransform="matrix(-1,0,0,1,172.6,-24.0137)" /><linearGradient
   x1="150.09099"
   y1="113.06593"
   x2="152.73506"
   y2="91.903961"
   id="linearGradient4216"
   xlink:href="#linearGradient3806"
   gradientUnits="userSpaceOnUse"
   gradientTransform="translate(-22.6001,-24.0137)" /><linearGradient
   x1="97.600105"
   y1="202.37288"
   x2="97.600105"
   y2="135.86441"
   id="linearGradient4218"
   xlink:href="#linearGradient3806"
   gradientUnits="userSpaceOnUse"
   gradientTransform="translate(-22.6001,-24.0137)" /><linearGradient
   x1="97.600105"
   y1="134.23729"
   x2="98.440681"
   y2="40.783253"
   id="linearGradient4220"
   xlink:href="#linearGradient3806"
   gradientUnits="userSpaceOnUse"
   gradientTransform="translate(-22.6001,-24.0137)" /><linearGradient
   x1="92.066544"
   y1="149.69492"
   x2="109.70607"
   y2="130.98305"
   id="linearGradient4222"
   xlink:href="#linearGradient3806"
   gradientUnits="userSpaceOnUse"
   gradientTransform="translate(-22.6001,-24.0137)" /><linearGradient
   x1="128.54237"
   y1="125.69491"
   x2="140.12811"
   y2="107.0519"
   id="linearGradient4224"
   xlink:href="#linearGradient3806"
   gradientUnits="userSpaceOnUse"
   gradientTransform="translate(-22.6001,-24.0137)" /><linearGradient
   x1="103.22386"
   y1="144.57872"
   x2="125.97288"
   y2="126.17776"
   id="linearGradient4226"
   xlink:href="#linearGradient3806"
   gradientUnits="userSpaceOnUse"
   gradientTransform="translate(-22.6001,-24.0137)" /><linearGradient
   x1="118.37289"
   y1="137.49153"
   x2="133.42372"
   y2="118.65607"
   id="linearGradient4228"
   xlink:href="#linearGradient3806"
   gradientUnits="userSpaceOnUse"
   gradientTransform="translate(-22.6001,-24.0137)" /><linearGradient
   x1="133.41924"
   y1="96.996918"
   x2="130.01176"
   y2="84.280075"
   id="linearGradient4230"
   xlink:href="#linearGradient3806"
   gradientUnits="userSpaceOnUse" /><linearGradient
   x1="109.70607"
   y1="94.372879"
   x2="97.016945"
   y2="66.858604"
   id="linearGradient4232"
   xlink:href="#linearGradient3806"
   gradientUnits="userSpaceOnUse" /><linearGradient
   x1="129.35593"
   y1="88.474571"
   x2="124.76414"
   y2="76.881355"
   id="linearGradient4234"
   xlink:href="#linearGradient3806"
   gradientUnits="userSpaceOnUse" /><linearGradient
   x1="119.88651"
   y1="101.49152"
   x2="111.66102"
   y2="64.271187"
   id="linearGradient4236"
   xlink:href="#linearGradient3806"
   gradientUnits="userSpaceOnUse" /><radialGradient
   cx="113.61648"
   cy="95.497902"
   r="11.489363"
   fx="113.61648"
   fy="95.497902"
   id="radialGradient4238"
   xlink:href="#linearGradient3814"
   gradientUnits="userSpaceOnUse" /><linearGradient
   x1="113.61648"
   y1="107.23558"
   x2="113.61648"
   y2="83.760223"
   id="linearGradient4240"
   xlink:href="#linearGradient3806"
   gradientUnits="userSpaceOnUse" />
  
  
 
   
   
   
   
   
  
    
    
   </defs>
 <path
   d="m 0.368345,33.849 0,99.8083 65.8934,0 0,-99.8083 -0.0044,0 c 0.003,-0.177748 0.0044,-0.35566 0.0044,-0.534067 0,-18.1929 -14.7539,-32.9466 -32.9468,-32.9466 -18.1927,0 -32.9466,14.7537 -32.9466,32.9466 0,0.178407 0.001318,0.356319 0.004118,0.534067 l -0.004118,0 z"
   id="_112820232"
   style="fill:#626d55" />
<path
   d=""
   id="path4639"
   style="fill:#1af2f7;fill-opacity:1;stroke:#ded626;stroke-width:0.48703283;stroke-linecap:round;stroke-linejoin:miter;stroke-miterlimit:4;stroke-opacity:0.551724;stroke-dasharray:none;stroke-dashoffset:0" /><g
   transform="matrix(0.16675721,0,0,0.16675721,20.816446,66.510539)"
   id="g4058"><path
     d="m 18.59942,68.418398 c -9.50851,0 -15.83343,3.146595 -18.09942,6.581598 2.26599,3.435002 8.59091,6.581612 18.09942,6.581612 9.50852,0 24.50035,-2.25079 39.54271,-4.45851 l 0,-2.123102 0,-2.1231 C 43.09977,70.669189 28.10794,68.418398 18.59942,68.418398 z"
     id="path4060"
     style="fill:url(#linearGradient4106);fill-opacity:1;stroke:#808080;stroke-width:0.99999994;stroke-miterlimit:4;stroke-opacity:1;stroke-dasharray:none" /><path
     d="m 65.563543,122.0367 c -2.48245,7.64019 -6.66205,11.90082 -10.01371,12.82475 -2.16846,-2.71754 -3.0455,-8.62116 -0.56306,-16.26135 2.48245,-7.64018 8.20499,-19.098652 13.90611,-30.608932 l 1.70593,0.55428 1.70593,0.5543 c -2.15328,12.663062 -4.25876,25.296782 -6.7412,32.936952 z"
     id="path4062"
     style="fill:url(#linearGradient4108);fill-opacity:1;stroke:#808080;stroke-width:0.99999994;stroke-miterlimit:4;stroke-opacity:1;stroke-dasharray:none" /><path
     d="m 31.399903,95.013218 c -7.64019,2.48245 -13.54383,1.60541 -16.26136,-0.56305 0.92395,-3.35166 5.18458,-7.53126 12.82476,-10.0137 7.64018,-2.48246 20.2739,-4.58794 32.93695,-6.74121 l 0.55429,1.70593 0.55429,1.70593 c -11.5103,5.70112 -22.96877,11.42367 -30.60893,13.9061 z"
     id="path4064"
     style="fill:url(#linearGradient4110);fill-opacity:1;stroke:#808080;stroke-width:0.99999994;stroke-miterlimit:4;stroke-opacity:1;stroke-dasharray:none" /><path
     d="m 54.196583,112.00458 c -4.17833,5.75097 -8.86083,8.19374 -11.93414,8.05481 -1.08183,-2.87997 -0.20561,-8.08815 3.97272,-13.83913 4.17833,-5.75098 12.12753,-13.829342 20.07288,-21.957172 l 1.2841,0.93295 1.2841,0.93296 c -5.27479,10.06812 -10.50133,20.124622 -14.67966,25.875582 z"
     id="path4066"
     style="fill:url(#linearGradient4112);fill-opacity:1;stroke:#808080;stroke-width:0.99999994;stroke-miterlimit:4;stroke-opacity:1;stroke-dasharray:none" /><path
     d="m 43.779733,103.76484 c -5.75097,4.17833 -10.95915,5.05456 -13.83912,3.97273 -0.13892,-3.07334 2.30383,-7.755812 8.05481,-11.934152 5.75098,-4.17835 15.80747,-9.40488 25.87558,-14.67966 l 0.93296,1.28409 0.93295,1.28411 c -8.12785,7.94535 -16.20621,15.89458 -21.95718,20.072882 z"
     id="path4068"
     style="fill:url(#linearGradient4114);fill-opacity:1;stroke:#808080;stroke-width:0.99999994;stroke-miterlimit:4;stroke-opacity:1;stroke-dasharray:none" /><path
     d="m 27.963303,65.563542 c -7.64018,-2.48245 -11.90082,-6.662058 -12.82476,-10.013705 2.71755,-2.168467 8.62118,-3.045505 16.26136,-0.563059 7.64018,2.482442 19.09865,8.204984 30.60893,13.906106 l -0.55429,1.705935 -0.55429,1.705924 C 48.237193,70.15146 35.603463,68.045982 27.963303,65.563542 z"
     id="path4070"
     style="fill:url(#linearGradient4116);fill-opacity:1;stroke:#808080;stroke-width:0.99999994;stroke-miterlimit:4;stroke-opacity:1;stroke-dasharray:none" /><path
     d="m 54.986773,31.399901 c -2.48244,-7.640184 -1.6054,-13.543819 0.56306,-16.261355 3.35166,0.923952 7.53126,5.184576 10.01371,12.824755 2.48245,7.640181 4.58793,20.273902 6.7412,32.936951 l -1.70593,0.554292 -1.70593,0.554289 C 63.191763,50.49853 57.469213,39.040062 54.986773,31.399901 z"
     id="path4072"
     style="fill:url(#linearGradient4118);fill-opacity:1;stroke:#808080;stroke-width:0.99999994;stroke-miterlimit:4;stroke-opacity:1;stroke-dasharray:none" /><path
     d="m 37.995413,54.196588 c -5.75096,-4.178328 -8.19373,-8.860834 -8.0548,-11.934144 2.87998,-1.081831 8.08814,-0.205608 13.83913,3.972718 5.75098,4.178331 13.82934,12.127534 21.95717,20.07288 l -0.93295,1.284097 -0.93296,1.284108 C 53.802883,63.60145 43.746373,58.374913 37.995413,54.196588 z"
     id="path4074"
     style="fill:url(#linearGradient4120);fill-opacity:1;stroke:#808080;stroke-width:0.99999994;stroke-miterlimit:4;stroke-opacity:1;stroke-dasharray:none" /><path
     d="m 46.235163,43.779736 c -4.17833,-5.750973 -5.05456,-10.959157 -3.97273,-13.839119 3.07333,-0.138919 7.75582,2.303829 11.93416,8.054807 4.17833,5.750979 9.40487,15.80747 14.67965,25.875582 l -1.2841,0.932955 -1.2841,0.932953 C 58.362693,57.609068 50.413473,49.530702 46.235163,43.779736 z"
     id="path4076"
     style="fill:url(#linearGradient4122);fill-opacity:1;stroke:#808080;stroke-width:0.99999994;stroke-miterlimit:4;stroke-opacity:1;stroke-dasharray:none" /><path
     d="m 131.40058,68.418398 c 9.50851,0 15.83343,3.146595 18.09942,6.581598 -2.26599,3.435002 -8.59091,6.581612 -18.09942,6.581612 -9.50852,0 -24.50035,-2.25079 -39.542707,-4.45851 l 0,-2.123102 0,-2.1231 c 15.042357,-2.207707 30.034187,-4.458498 39.542707,-4.458498 z"
     id="path4078"
     style="fill:url(#linearGradient4124);fill-opacity:1;stroke:#808080;stroke-width:0.99999994;stroke-miterlimit:4;stroke-opacity:1;stroke-dasharray:none" /><path
     d="m 68.418391,131.40059 c 0,9.5085 3.146602,15.83342 6.581606,18.09941 3.435006,-2.26599 6.581606,-8.59091 6.581606,-18.09941 0,-9.50851 -2.25079,-24.50036 -4.458508,-39.542722 l -2.123098,0 -2.123099,0 c -2.207713,15.042362 -4.458507,30.034212 -4.458507,39.542722 z"
     id="path4080"
     style="fill:url(#linearGradient4126);fill-opacity:1;stroke:#808080;stroke-width:0.99999994;stroke-miterlimit:4;stroke-opacity:1;stroke-dasharray:none" /><path
     d="m 68.418391,18.599414 c 0,-9.508512 3.146602,-15.833426 6.581606,-18.099414 3.435006,2.265988 6.581606,8.590902 6.581606,18.099414 0,9.508514 -2.25079,24.500349 -4.458508,39.542709 l -2.123098,0 -2.123099,0 C 70.669185,43.099763 68.418391,28.107928 68.418391,18.599414 z"
     id="path4082"
     style="fill:url(#linearGradient4128);fill-opacity:1;stroke:#808080;stroke-width:0.99999994;stroke-miterlimit:4;stroke-opacity:1;stroke-dasharray:none" /><path
     d="m 84.436453,122.0367 c 2.48245,7.64019 6.66205,11.90082 10.01371,12.82475 2.16846,-2.71754 3.0455,-8.62116 0.56306,-16.26135 -2.48245,-7.64018 -8.20499,-19.098652 -13.90611,-30.608932 l -1.70593,0.55428 -1.70593,0.5543 c 2.15328,12.663062 4.25876,25.296782 6.7412,32.936952 z"
     id="path4084"
     style="fill:url(#linearGradient4130);fill-opacity:1;stroke:#808080;stroke-width:0.99999994;stroke-miterlimit:4;stroke-opacity:1;stroke-dasharray:none" /><path
     d="m 118.60009,95.013218 c 7.64019,2.48245 13.54383,1.60541 16.26136,-0.56305 -0.92395,-3.35166 -5.18458,-7.53126 -12.82476,-10.0137 -7.64018,-2.48246 -20.2739,-4.58794 -32.936947,-6.74121 l -0.55429,1.70593 -0.55429,1.70593 c 11.5103,5.70112 22.968767,11.42367 30.608927,13.9061 z"
     id="path4086"
     style="fill:url(#linearGradient4132);fill-opacity:1;stroke:#808080;stroke-width:0.99999994;stroke-miterlimit:4;stroke-opacity:1;stroke-dasharray:none" /><path
     d="m 95.803413,112.00458 c 4.17833,5.75097 8.860827,8.19374 11.934137,8.05481 1.08183,-2.87997 0.20561,-8.08815 -3.97272,-13.83913 C 99.586503,100.46928 91.637303,92.390918 83.691953,84.263088 l -1.2841,0.93295 -1.2841,0.93296 c 5.27479,10.06812 10.50133,20.124622 14.67966,25.875582 z"
     id="path4088"
     style="fill:url(#linearGradient4134);fill-opacity:1;stroke:#808080;stroke-width:0.99999994;stroke-miterlimit:4;stroke-opacity:1;stroke-dasharray:none" /><path
     d="m 106.22026,103.76484 c 5.75097,4.17833 10.95915,5.05456 13.83912,3.97273 0.13892,-3.07334 -2.30383,-7.755812 -8.05481,-11.934152 -5.75098,-4.17835 -15.807467,-9.40488 -25.875577,-14.67966 l -0.93296,1.28409 -0.93295,1.28411 c 8.12785,7.94535 16.206207,15.89458 21.957177,20.072882 z"
     id="path4090"
     style="fill:url(#linearGradient4136);fill-opacity:1;stroke:#808080;stroke-width:0.99999994;stroke-miterlimit:4;stroke-opacity:1;stroke-dasharray:none" /><g
     transform="translate(-22.6001,-24.0137)"
     id="g4092"
     style="stroke:#808080;stroke-opacity:1"><path
       d="m 144.6368,89.577274 c 7.64018,-2.48245 11.90082,-6.662058 12.82476,-10.013705 -2.71755,-2.168467 -8.62118,-3.045505 -16.26136,-0.563059 -7.64018,2.482442 -19.09865,8.204984 -30.60893,13.906106 l 0.55429,1.705935 0.55429,1.705924 c 12.66306,-2.153283 25.29679,-4.258761 32.93695,-6.741201 z"
       id="path4094"
       style="fill:url(#linearGradient4138);fill-opacity:1;stroke:#808080;stroke-width:0.99999994;stroke-miterlimit:4;stroke-opacity:1;stroke-dasharray:none" /><path
       d="m 117.61333,55.413633 c 2.48244,-7.640184 1.6054,-13.543819 -0.56306,-16.261355 -3.35166,0.923952 -7.53126,5.184576 -10.01371,12.824755 -2.48245,7.640181 -4.58793,20.273902 -6.7412,32.936951 l 1.70593,0.554292 1.70593,0.554289 c 5.70112,-11.510303 11.42367,-22.968771 13.90611,-30.608932 z"
       id="path4096"
       style="fill:url(#linearGradient4140);fill-opacity:1;stroke:#808080;stroke-width:0.99999994;stroke-miterlimit:4;stroke-opacity:1;stroke-dasharray:none" /><path
       d="m 134.60469,78.21032 c 5.75096,-4.178328 8.19373,-8.860834 8.0548,-11.934144 -2.87998,-1.081831 -8.08814,-0.205608 -13.83913,3.972718 -5.75098,4.178331 -13.82934,12.127534 -21.95717,20.07288 l 0.93295,1.284097 0.93296,1.284108 c 10.06812,-5.274797 20.12463,-10.501334 25.87559,-14.679659 z"
       id="path4098"
       style="fill:url(#linearGradient4142);fill-opacity:1;stroke:#808080;stroke-width:0.99999994;stroke-miterlimit:4;stroke-opacity:1;stroke-dasharray:none" /><path
       d="m 126.36494,67.793468 c 4.17833,-5.750973 5.05456,-10.959157 3.97273,-13.839119 -3.07333,-0.138919 -7.75582,2.303829 -11.93416,8.054807 -4.17833,5.750979 -9.40487,15.80747 -14.67965,25.875582 l 1.2841,0.932955 1.2841,0.932953 c 7.94535,-8.127846 15.89457,-16.206212 20.07288,-21.957178 z"
       id="path4100"
       style="fill:url(#linearGradient4144);fill-opacity:1;stroke:#808080;stroke-width:0.99999994;stroke-miterlimit:4;stroke-opacity:1;stroke-dasharray:none" /></g><path
     d="m 124.61858,95.497902 a 11.002102,11.002102 0 1 1 -22.0042,0 11.002102,11.002102 0 1 1 22.0042,0 z"
     transform="matrix(0,-1.74288,1.74288,0,-91.4417,273.02)"
     id="path4102"
     style="fill:url(#radialGradient4146);fill-opacity:1;stroke:#808080;stroke-width:0.57376182;stroke-miterlimit:4;stroke-opacity:1;stroke-dasharray:none" /><path
     d="m 124.61858,95.497902 a 11.002102,11.002102 0 1 1 -22.0042,0 11.002102,11.002102 0 1 1 22.0042,0 z"
     transform="matrix(1.15452,0,0,1.15452,-56.1727,-35.2544)"
     id="path4104"
     style="fill:url(#linearGradient4148);fill-opacity:1;stroke:#808080;stroke-width:0.86615962;stroke-miterlimit:4;stroke-opacity:1;stroke-dasharray:none" /></g><g
   transform="matrix(0.16675721,0,0,0.16675721,20.816577,96.227208)"
   id="g4150"><path
     d="m 18.59942,68.418398 c -9.50851,0 -15.83343,3.146595 -18.09942,6.581598 2.26599,3.435002 8.59091,6.581612 18.09942,6.581612 9.50852,0 24.50035,-2.25079 39.54271,-4.45851 l 0,-2.123102 0,-2.1231 C 43.09977,70.669189 28.10794,68.418398 18.59942,68.418398 z"
     id="path4152"
     style="fill:url(#linearGradient4198);fill-opacity:1;stroke:#808080;stroke-width:0.99999994;stroke-miterlimit:4;stroke-opacity:1;stroke-dasharray:none" /><path
     d="m 65.563543,122.0367 c -2.48245,7.64019 -6.66205,11.90082 -10.01371,12.82475 -2.16846,-2.71754 -3.0455,-8.62116 -0.56306,-16.26135 2.48245,-7.64018 8.20499,-19.098652 13.90611,-30.608932 l 1.70593,0.55428 1.70593,0.5543 c -2.15328,12.663062 -4.25876,25.296782 -6.7412,32.936952 z"
     id="path4154"
     style="fill:url(#linearGradient4200);fill-opacity:1;stroke:#808080;stroke-width:0.99999994;stroke-miterlimit:4;stroke-opacity:1;stroke-dasharray:none" /><path
     d="m 31.399903,95.013218 c -7.64019,2.48245 -13.54383,1.60541 -16.26136,-0.56305 0.92395,-3.35166 5.18458,-7.53126 12.82476,-10.0137 7.64018,-2.48246 20.2739,-4.58794 32.93695,-6.74121 l 0.55429,1.70593 0.55429,1.70593 c -11.5103,5.70112 -22.96877,11.42367 -30.60893,13.9061 z"
     id="path4156"
     style="fill:url(#linearGradient4202);fill-opacity:1;stroke:#808080;stroke-width:0.99999994;stroke-miterlimit:4;stroke-opacity:1;stroke-dasharray:none" /><path
     d="m 54.196583,112.00458 c -4.17833,5.75097 -8.86083,8.19374 -11.93414,8.05481 -1.08183,-2.87997 -0.20561,-8.08815 3.97272,-13.83913 4.17833,-5.75098 12.12753,-13.829342 20.07288,-21.957172 l 1.2841,0.93295 1.2841,0.93296 c -5.27479,10.06812 -10.50133,20.124622 -14.67966,25.875582 z"
     id="path4158"
     style="fill:url(#linearGradient4204);fill-opacity:1;stroke:#808080;stroke-width:0.99999994;stroke-miterlimit:4;stroke-opacity:1;stroke-dasharray:none" /><path
     d="m 43.779733,103.76484 c -5.75097,4.17833 -10.95915,5.05456 -13.83912,3.97273 -0.13892,-3.07334 2.30383,-7.755812 8.05481,-11.934152 5.75098,-4.17835 15.80747,-9.40488 25.87558,-14.67966 l 0.93296,1.28409 0.93295,1.28411 c -8.12785,7.94535 -16.20621,15.89458 -21.95718,20.072882 z"
     id="path4160"
     style="fill:url(#linearGradient4206);fill-opacity:1;stroke:#808080;stroke-width:0.99999994;stroke-miterlimit:4;stroke-opacity:1;stroke-dasharray:none" /><path
     d="m 27.963303,65.563542 c -7.64018,-2.48245 -11.90082,-6.662058 -12.82476,-10.013705 2.71755,-2.168467 8.62118,-3.045505 16.26136,-0.563059 7.64018,2.482442 19.09865,8.204984 30.60893,13.906106 l -0.55429,1.705935 -0.55429,1.705924 C 48.237193,70.15146 35.603463,68.045982 27.963303,65.563542 z"
     id="path4162"
     style="fill:url(#linearGradient4208);fill-opacity:1;stroke:#808080;stroke-width:0.99999994;stroke-miterlimit:4;stroke-opacity:1;stroke-dasharray:none" /><path
     d="m 54.986773,31.399901 c -2.48244,-7.640184 -1.6054,-13.543819 0.56306,-16.261355 3.35166,0.923952 7.53126,5.184576 10.01371,12.824755 2.48245,7.640181 4.58793,20.273902 6.7412,32.936951 l -1.70593,0.554292 -1.70593,0.554289 C 63.191763,50.49853 57.469213,39.040062 54.986773,31.399901 z"
     id="path4164"
     style="fill:url(#linearGradient4210);fill-opacity:1;stroke:#808080;stroke-width:0.99999994;stroke-miterlimit:4;stroke-opacity:1;stroke-dasharray:none" /><path
     d="m 37.995413,54.196588 c -5.75096,-4.178328 -8.19373,-8.860834 -8.0548,-11.934144 2.87998,-1.081831 8.08814,-0.205608 13.83913,3.972718 5.75098,4.178331 13.82934,12.127534 21.95717,20.07288 l -0.93295,1.284097 -0.93296,1.284108 C 53.802883,63.60145 43.746373,58.374913 37.995413,54.196588 z"
     id="path4166"
     style="fill:url(#linearGradient4212);fill-opacity:1;stroke:#808080;stroke-width:0.99999994;stroke-miterlimit:4;stroke-opacity:1;stroke-dasharray:none" /><path
     d="m 46.235163,43.779736 c -4.17833,-5.750973 -5.05456,-10.959157 -3.97273,-13.839119 3.07333,-0.138919 7.75582,2.303829 11.93416,8.054807 4.17833,5.750979 9.40487,15.80747 14.67965,25.875582 l -1.2841,0.932955 -1.2841,0.932953 C 58.362693,57.609068 50.413473,49.530702 46.235163,43.779736 z"
     id="path4168"
     style="fill:url(#linearGradient4214);fill-opacity:1;stroke:#808080;stroke-width:0.99999994;stroke-miterlimit:4;stroke-opacity:1;stroke-dasharray:none" /><path
     d="m 131.40058,68.418398 c 9.50851,0 15.83343,3.146595 18.09942,6.581598 -2.26599,3.435002 -8.59091,6.581612 -18.09942,6.581612 -9.50852,0 -24.50035,-2.25079 -39.542707,-4.45851 l 0,-2.123102 0,-2.1231 c 15.042357,-2.207707 30.034187,-4.458498 39.542707,-4.458498 z"
     id="path4170"
     style="fill:url(#linearGradient4216);fill-opacity:1;stroke:#808080;stroke-width:0.99999994;stroke-miterlimit:4;stroke-opacity:1;stroke-dasharray:none" /><path
     d="m 68.418391,131.40059 c 0,9.5085 3.146602,15.83342 6.581606,18.09941 3.435006,-2.26599 6.581606,-8.59091 6.581606,-18.09941 0,-9.50851 -2.25079,-24.50036 -4.458508,-39.542722 l -2.123098,0 -2.123099,0 c -2.207713,15.042362 -4.458507,30.034212 -4.458507,39.542722 z"
     id="path4172"
     style="fill:url(#linearGradient4218);fill-opacity:1;stroke:#808080;stroke-width:0.99999994;stroke-miterlimit:4;stroke-opacity:1;stroke-dasharray:none" /><path
     d="m 68.418391,18.599414 c 0,-9.508512 3.146602,-15.833426 6.581606,-18.099414 3.435006,2.265988 6.581606,8.590902 6.581606,18.099414 0,9.508514 -2.25079,24.500349 -4.458508,39.542709 l -2.123098,0 -2.123099,0 C 70.669185,43.099763 68.418391,28.107928 68.418391,18.599414 z"
     id="path4174"
     style="fill:url(#linearGradient4220);fill-opacity:1;stroke:#808080;stroke-width:0.99999994;stroke-miterlimit:4;stroke-opacity:1;stroke-dasharray:none" /><path
     d="m 84.436453,122.0367 c 2.48245,7.64019 6.66205,11.90082 10.01371,12.82475 2.16846,-2.71754 3.0455,-8.62116 0.56306,-16.26135 -2.48245,-7.64018 -8.20499,-19.098652 -13.90611,-30.608932 l -1.70593,0.55428 -1.70593,0.5543 c 2.15328,12.663062 4.25876,25.296782 6.7412,32.936952 z"
     id="path4176"
     style="fill:url(#linearGradient4222);fill-opacity:1;stroke:#808080;stroke-width:0.99999994;stroke-miterlimit:4;stroke-opacity:1;stroke-dasharray:none" /><path
     d="m 118.60009,95.013218 c 7.64019,2.48245 13.54383,1.60541 16.26136,-0.56305 -0.92395,-3.35166 -5.18458,-7.53126 -12.82476,-10.0137 -7.64018,-2.48246 -20.2739,-4.58794 -32.936947,-6.74121 l -0.55429,1.70593 -0.55429,1.70593 c 11.5103,5.70112 22.968767,11.42367 30.608927,13.9061 z"
     id="path4178"
     style="fill:url(#linearGradient4224);fill-opacity:1;stroke:#808080;stroke-width:0.99999994;stroke-miterlimit:4;stroke-opacity:1;stroke-dasharray:none" /><path
     d="m 95.803413,112.00458 c 4.17833,5.75097 8.860827,8.19374 11.934137,8.05481 1.08183,-2.87997 0.20561,-8.08815 -3.97272,-13.83913 C 99.586503,100.46928 91.637303,92.390918 83.691953,84.263088 l -1.2841,0.93295 -1.2841,0.93296 c 5.27479,10.06812 10.50133,20.124622 14.67966,25.875582 z"
     id="path4180"
     style="fill:url(#linearGradient4226);fill-opacity:1;stroke:#808080;stroke-width:0.99999994;stroke-miterlimit:4;stroke-opacity:1;stroke-dasharray:none" /><path
     d="m 106.22026,103.76484 c 5.75097,4.17833 10.95915,5.05456 13.83912,3.97273 0.13892,-3.07334 -2.30383,-7.755812 -8.05481,-11.934152 -5.75098,-4.17835 -15.807467,-9.40488 -25.875577,-14.67966 l -0.93296,1.28409 -0.93295,1.28411 c 8.12785,7.94535 16.206207,15.89458 21.957177,20.072882 z"
     id="path4182"
     style="fill:url(#linearGradient4228);fill-opacity:1;stroke:#808080;stroke-width:0.99999994;stroke-miterlimit:4;stroke-opacity:1;stroke-dasharray:none" /><g
     transform="translate(-22.6001,-24.0137)"
     id="g4184"
     style="stroke:#808080;stroke-opacity:1"><path
       d="m 144.6368,89.577274 c 7.64018,-2.48245 11.90082,-6.662058 12.82476,-10.013705 -2.71755,-2.168467 -8.62118,-3.045505 -16.26136,-0.563059 -7.64018,2.482442 -19.09865,8.204984 -30.60893,13.906106 l 0.55429,1.705935 0.55429,1.705924 c 12.66306,-2.153283 25.29679,-4.258761 32.93695,-6.741201 z"
       id="path4186"
       style="fill:url(#linearGradient4230);fill-opacity:1;stroke:#808080;stroke-width:0.99999994;stroke-miterlimit:4;stroke-opacity:1;stroke-dasharray:none" /><path
       d="m 117.61333,55.413633 c 2.48244,-7.640184 1.6054,-13.543819 -0.56306,-16.261355 -3.35166,0.923952 -7.53126,5.184576 -10.01371,12.824755 -2.48245,7.640181 -4.58793,20.273902 -6.7412,32.936951 l 1.70593,0.554292 1.70593,0.554289 c 5.70112,-11.510303 11.42367,-22.968771 13.90611,-30.608932 z"
       id="path4188"
       style="fill:url(#linearGradient4232);fill-opacity:1;stroke:#808080;stroke-width:0.99999994;stroke-miterlimit:4;stroke-opacity:1;stroke-dasharray:none" /><path
       d="m 134.60469,78.21032 c 5.75096,-4.178328 8.19373,-8.860834 8.0548,-11.934144 -2.87998,-1.081831 -8.08814,-0.205608 -13.83913,3.972718 -5.75098,4.178331 -13.82934,12.127534 -21.95717,20.07288 l 0.93295,1.284097 0.93296,1.284108 c 10.06812,-5.274797 20.12463,-10.501334 25.87559,-14.679659 z"
       id="path4190"
       style="fill:url(#linearGradient4234);fill-opacity:1;stroke:#808080;stroke-width:0.99999994;stroke-miterlimit:4;stroke-opacity:1;stroke-dasharray:none" /><path
       d="m 126.36494,67.793468 c 4.17833,-5.750973 5.05456,-10.959157 3.97273,-13.839119 -3.07333,-0.138919 -7.75582,2.303829 -11.93416,8.054807 -4.17833,5.750979 -9.40487,15.80747 -14.67965,25.875582 l 1.2841,0.932955 1.2841,0.932953 c 7.94535,-8.127846 15.89457,-16.206212 20.07288,-21.957178 z"
       id="path4192"
       style="fill:url(#linearGradient4236);fill-opacity:1;stroke:#808080;stroke-width:0.99999994;stroke-miterlimit:4;stroke-opacity:1;stroke-dasharray:none" /></g><path
     d="m 124.61858,95.497902 a 11.002102,11.002102 0 1 1 -22.0042,0 11.002102,11.002102 0 1 1 22.0042,0 z"
     transform="matrix(0,-1.74288,1.74288,0,-91.4417,273.02)"
     id="path4194"
     style="fill:url(#radialGradient4238);fill-opacity:1;stroke:#808080;stroke-width:0.57376182;stroke-miterlimit:4;stroke-opacity:1;stroke-dasharray:none" /><path
     d="m 124.61858,95.497902 a 11.002102,11.002102 0 1 1 -22.0042,0 11.002102,11.002102 0 1 1 22.0042,0 z"
     transform="matrix(1.15452,0,0,1.15452,-56.1727,-35.2544)"
     id="path4196"
     style="fill:url(#linearGradient4240);fill-opacity:1;stroke:#808080;stroke-width:0.86615962;stroke-miterlimit:4;stroke-opacity:1;stroke-dasharray:none" /></g></svg>