<?xml version="1.0" encoding="UTF-8" standalone="no"?>
<!-- Created with Inkscape (http://www.inkscape.org/) -->

<svg
   xmlns:dc="http://purl.org/dc/elements/1.1/"
   xmlns:cc="http://creativecommons.org/ns#"
   xmlns:rdf="http://www.w3.org/1999/02/22-rdf-syntax-ns#"
   xmlns:svg="http://www.w3.org/2000/svg"
   xmlns="http://www.w3.org/2000/svg"
   xmlns:xlink="http://www.w3.org/1999/xlink"
   version="1.1"
   width="40.447102mm"
   height="81.358902mm"
   viewBox="0 0 4.47662 9.00467"
   id="svg2"
   xml:space="preserve"
   style="fill-rule:evenodd"><metadata
   id="metadata505"><rdf:RDF><cc:Work
       rdf:about=""><dc:format>image/svg+xml</dc:format><dc:type
         rdf:resource="http://purl.org/dc/dcmitype/StillImage" /><dc:title></dc:title></cc:Work></rdf:RDF></metadata>
 <defs
   id="defs4">
  <style
   type="text/css"
   id="style6" />
 
  
  
 
   
   
   
   
   
  
    
    
   <linearGradient
   x1="113.61648"
   y1="107.23558"
   x2="113.61648"
   y2="83.760223"
   id="linearGradient4332"
   xlink:href="#linearGradient3806"
   gradientUnits="userSpaceOnUse" /><radialGradient
   cx="113.61648"
   cy="95.497902"
   r="11.489363"
   fx="113.61648"
   fy="95.497902"
   id="radialGradient4330"
   xlink:href="#linearGradient3814"
   gradientUnits="userSpaceOnUse" /><linearGradient
   x1="119.88651"
   y1="101.49152"
   x2="111.66102"
   y2="64.271187"
   id="linearGradient4328"
   xlink:href="#linearGradient3806"
   gradientUnits="userSpaceOnUse" /><linearGradient
   x1="129.35593"
   y1="88.474571"
   x2="124.76414"
   y2="76.881355"
   id="linearGradient4326"
   xlink:href="#linearGradient3806"
   gradientUnits="userSpaceOnUse" /><linearGradient
   x1="109.70607"
   y1="94.372879"
   x2="97.016945"
   y2="66.858604"
   id="linearGradient4324"
   xlink:href="#linearGradient3806"
   gradientUnits="userSpaceOnUse" /><linearGradient
   x1="133.41924"
   y1="96.996918"
   x2="130.01176"
   y2="84.280075"
   id="linearGradient4322"
   xlink:href="#linearGradient3806"
   gradientUnits="userSpaceOnUse" /><linearGradient
   x1="118.37289"
   y1="137.49153"
   x2="133.42372"
   y2="118.65607"
   id="linearGradient4320"
   xlink:href="#linearGradient3806"
   gradientUnits="userSpaceOnUse"
   gradientTransform="translate(-22.6001,-24.0137)" /><linearGradient
   x1="103.22386"
   y1="144.57872"
   x2="125.97288"
   y2="126.17776"
   id="linearGradient4318"
   xlink:href="#linearGradient3806"
   gradientUnits="userSpaceOnUse"
   gradientTransform="translate(-22.6001,-24.0137)" /><linearGradient
   x1="128.54237"
   y1="125.69491"
   x2="140.12811"
   y2="107.0519"
   id="linearGradient4316"
   xlink:href="#linearGradient3806"
   gradientUnits="userSpaceOnUse"
   gradientTransform="translate(-22.6001,-24.0137)" /><linearGradient
   x1="92.066544"
   y1="149.69492"
   x2="109.70607"
   y2="130.98305"
   id="linearGradient4314"
   xlink:href="#linearGradient3806"
   gradientUnits="userSpaceOnUse"
   gradientTransform="translate(-22.6001,-24.0137)" /><linearGradient
   x1="97.600105"
   y1="134.23729"
   x2="98.440681"
   y2="40.783253"
   id="linearGradient4312"
   xlink:href="#linearGradient3806"
   gradientUnits="userSpaceOnUse"
   gradientTransform="translate(-22.6001,-24.0137)" /><linearGradient
   x1="97.600105"
   y1="202.37288"
   x2="97.600105"
   y2="135.86441"
   id="linearGradient4310"
   xlink:href="#linearGradient3806"
   gradientUnits="userSpaceOnUse"
   gradientTransform="translate(-22.6001,-24.0137)" /><linearGradient
   x1="150.09099"
   y1="113.06593"
   x2="152.73506"
   y2="91.903961"
   id="linearGradient4308"
   xlink:href="#linearGradient3806"
   gradientUnits="userSpaceOnUse"
   gradientTransform="translate(-22.6001,-24.0137)" /><linearGradient
   x1="119.88651"
   y1="101.49152"
   x2="111.66102"
   y2="64.271187"
   id="linearGradient4306"
   xlink:href="#linearGradient3806"
   gradientUnits="userSpaceOnUse"
   gradientTransform="matrix(-1,0,0,1,172.6,-24.0137)" /><linearGradient
   x1="129.35593"
   y1="88.474571"
   x2="124.76414"
   y2="76.881355"
   id="linearGradient4304"
   xlink:href="#linearGradient3806"
   gradientUnits="userSpaceOnUse"
   gradientTransform="matrix(-1,0,0,1,172.6,-24.0137)" /><linearGradient
   x1="109.70607"
   y1="94.372879"
   x2="97.016945"
   y2="66.858604"
   id="linearGradient4302"
   xlink:href="#linearGradient3806"
   gradientUnits="userSpaceOnUse"
   gradientTransform="matrix(-1,0,0,1,172.6,-24.0137)" /><linearGradient
   x1="133.41924"
   y1="96.996918"
   x2="130.01176"
   y2="84.280075"
   id="linearGradient4300"
   xlink:href="#linearGradient3806"
   gradientUnits="userSpaceOnUse"
   gradientTransform="matrix(-1,0,0,1,172.6,-24.0137)" /><linearGradient
   x1="118.37289"
   y1="137.49153"
   x2="133.42372"
   y2="118.65607"
   id="linearGradient4298"
   xlink:href="#linearGradient3806"
   gradientUnits="userSpaceOnUse"
   gradientTransform="matrix(-1,0,0,1,172.6,-24.0137)" /><linearGradient
   x1="103.22386"
   y1="144.57872"
   x2="125.97288"
   y2="126.17776"
   id="linearGradient4296"
   xlink:href="#linearGradient3806"
   gradientUnits="userSpaceOnUse"
   gradientTransform="matrix(-1,0,0,1,172.6,-24.0137)" /><linearGradient
   x1="128.54237"
   y1="125.69491"
   x2="140.12811"
   y2="107.0519"
   id="linearGradient4294"
   xlink:href="#linearGradient3806"
   gradientUnits="userSpaceOnUse"
   gradientTransform="matrix(-1,0,0,1,172.6,-24.0137)" /><linearGradient
   x1="92.066544"
   y1="149.69492"
   x2="109.70607"
   y2="130.98305"
   id="linearGradient4292"
   xlink:href="#linearGradient3806"
   gradientUnits="userSpaceOnUse"
   gradientTransform="matrix(-1,0,0,1,172.6,-24.0137)" /><linearGradient
   x1="150.09099"
   y1="113.06593"
   x2="152.73506"
   y2="91.903961"
   id="linearGradient4290"
   xlink:href="#linearGradient3806"
   gradientUnits="userSpaceOnUse"
   gradientTransform="matrix(-1,0,0,1,172.6,-24.0137)" /><linearGradient
   x1="113.61648"
   y1="107.23558"
   x2="113.61648"
   y2="83.760223"
   id="linearGradient4240"
   xlink:href="#linearGradient3806"
   gradientUnits="userSpaceOnUse" /><radialGradient
   cx="113.61648"
   cy="95.497902"
   r="11.489363"
   fx="113.61648"
   fy="95.497902"
   id="radialGradient4238"
   xlink:href="#linearGradient3814"
   gradientUnits="userSpaceOnUse" /><linearGradient
   x1="119.88651"
   y1="101.49152"
   x2="111.66102"
   y2="64.271187"
   id="linearGradient4236"
   xlink:href="#linearGradient3806"
   gradientUnits="userSpaceOnUse" /><linearGradient
   x1="129.35593"
   y1="88.474571"
   x2="124.76414"
   y2="76.881355"
   id="linearGradient4234"
   xlink:href="#linearGradient3806"
   gradientUnits="userSpaceOnUse" /><linearGradient
   x1="109.70607"
   y1="94.372879"
   x2="97.016945"
   y2="66.858604"
   id="linearGradient4232"
   xlink:href="#linearGradient3806"
   gradientUnits="userSpaceOnUse" /><linearGradient
   x1="133.41924"
   y1="96.996918"
   x2="130.01176"
   y2="84.280075"
   id="linearGradient4230"
   xlink:href="#linearGradient3806"
   gradientUnits="userSpaceOnUse" /><linearGradient
   x1="118.37289"
   y1="137.49153"
   x2="133.42372"
   y2="118.65607"
   id="linearGradient4228"
   xlink:href="#linearGradient3806"
   gradientUnits="userSpaceOnUse"
   gradientTransform="translate(-22.6001,-24.0137)" /><linearGradient
   x1="103.22386"
   y1="144.57872"
   x2="125.97288"
   y2="126.17776"
   id="linearGradient4226"
   xlink:href="#linearGradient3806"
   gradientUnits="userSpaceOnUse"
   gradientTransform="translate(-22.6001,-24.0137)" /><linearGradient
   x1="128.54237"
   y1="125.69491"
   x2="140.12811"
   y2="107.0519"
   id="linearGradient4224"
   xlink:href="#linearGradient3806"
   gradientUnits="userSpaceOnUse"
   gradientTransform="translate(-22.6001,-24.0137)" /><linearGradient
   x1="92.066544"
   y1="149.69492"
   x2="109.70607"
   y2="130.98305"
   id="linearGradient4222"
   xlink:href="#linearGradient3806"
   gradientUnits="userSpaceOnUse"
   gradientTransform="translate(-22.6001,-24.0137)" /><linearGradient
   x1="97.600105"
   y1="134.23729"
   x2="98.440681"
   y2="40.783253"
   id="linearGradient4220"
   xlink:href="#linearGradient3806"
   gradientUnits="userSpaceOnUse"
   gradientTransform="translate(-22.6001,-24.0137)" /><linearGradient
   x1="97.600105"
   y1="202.37288"
   x2="97.600105"
   y2="135.86441"
   id="linearGradient4218"
   xlink:href="#linearGradient3806"
   gradientUnits="userSpaceOnUse"
   gradientTransform="translate(-22.6001,-24.0137)" /><linearGradient
   x1="150.09099"
   y1="113.06593"
   x2="152.73506"
   y2="91.903961"
   id="linearGradient4216"
   xlink:href="#linearGradient3806"
   gradientUnits="userSpaceOnUse"
   gradientTransform="translate(-22.6001,-24.0137)" /><linearGradient
   x1="119.88651"
   y1="101.49152"
   x2="111.66102"
   y2="64.271187"
   id="linearGradient4214"
   xlink:href="#linearGradient3806"
   gradientUnits="userSpaceOnUse"
   gradientTransform="matrix(-1,0,0,1,172.6,-24.0137)" /><linearGradient
   x1="129.35593"
   y1="88.474571"
   x2="124.76414"
   y2="76.881355"
   id="linearGradient4212"
   xlink:href="#linearGradient3806"
   gradientUnits="userSpaceOnUse"
   gradientTransform="matrix(-1,0,0,1,172.6,-24.0137)" /><linearGradient
   x1="109.70607"
   y1="94.372879"
   x2="97.016945"
   y2="66.858604"
   id="linearGradient4210"
   xlink:href="#linearGradient3806"
   gradientUnits="userSpaceOnUse"
   gradientTransform="matrix(-1,0,0,1,172.6,-24.0137)" /><linearGradient
   x1="133.41924"
   y1="96.996918"
   x2="130.01176"
   y2="84.280075"
   id="linearGradient4208"
   xlink:href="#linearGradient3806"
   gradientUnits="userSpaceOnUse"
   gradientTransform="matrix(-1,0,0,1,172.6,-24.0137)" /><linearGradient
   x1="118.37289"
   y1="137.49153"
   x2="133.42372"
   y2="118.65607"
   id="linearGradient4206"
   xlink:href="#linearGradient3806"
   gradientUnits="userSpaceOnUse"
   gradientTransform="matrix(-1,0,0,1,172.6,-24.0137)" /><linearGradient
   x1="103.22386"
   y1="144.57872"
   x2="125.97288"
   y2="126.17776"
   id="linearGradient4204"
   xlink:href="#linearGradient3806"
   gradientUnits="userSpaceOnUse"
   gradientTransform="matrix(-1,0,0,1,172.6,-24.0137)" /><linearGradient
   x1="128.54237"
   y1="125.69491"
   x2="140.12811"
   y2="107.0519"
   id="linearGradient4202"
   xlink:href="#linearGradient3806"
   gradientUnits="userSpaceOnUse"
   gradientTransform="matrix(-1,0,0,1,172.6,-24.0137)" /><linearGradient
   x1="92.066544"
   y1="149.69492"
   x2="109.70607"
   y2="130.98305"
   id="linearGradient4200"
   xlink:href="#linearGradient3806"
   gradientUnits="userSpaceOnUse"
   gradientTransform="matrix(-1,0,0,1,172.6,-24.0137)" /><linearGradient
   x1="150.09099"
   y1="113.06593"
   x2="152.73506"
   y2="91.903961"
   id="linearGradient4198"
   xlink:href="#linearGradient3806"
   gradientUnits="userSpaceOnUse"
   gradientTransform="matrix(-1,0,0,1,172.6,-24.0137)" /><linearGradient
   x1="113.61648"
   y1="107.23558"
   x2="113.61648"
   y2="83.760223"
   id="linearGradient4148"
   xlink:href="#linearGradient3806"
   gradientUnits="userSpaceOnUse" /><radialGradient
   cx="113.61648"
   cy="95.497902"
   r="11.489363"
   fx="113.61648"
   fy="95.497902"
   id="radialGradient4146"
   xlink:href="#linearGradient3814"
   gradientUnits="userSpaceOnUse" /><linearGradient
   x1="119.88651"
   y1="101.49152"
   x2="111.66102"
   y2="64.271187"
   id="linearGradient4144"
   xlink:href="#linearGradient3806"
   gradientUnits="userSpaceOnUse" /><linearGradient
   x1="129.35593"
   y1="88.474571"
   x2="124.76414"
   y2="76.881355"
   id="linearGradient4142"
   xlink:href="#linearGradient3806"
   gradientUnits="userSpaceOnUse" /><linearGradient
   x1="109.70607"
   y1="94.372879"
   x2="97.016945"
   y2="66.858604"
   id="linearGradient4140"
   xlink:href="#linearGradient3806"
   gradientUnits="userSpaceOnUse" /><linearGradient
   x1="133.41924"
   y1="96.996918"
   x2="130.01176"
   y2="84.280075"
   id="linearGradient4138"
   xlink:href="#linearGradient3806"
   gradientUnits="userSpaceOnUse" /><linearGradient
   x1="118.37289"
   y1="137.49153"
   x2="133.42372"
   y2="118.65607"
   id="linearGradient4136"
   xlink:href="#linearGradient3806"
   gradientUnits="userSpaceOnUse"
   gradientTransform="translate(-22.6001,-24.0137)" /><linearGradient
   x1="103.22386"
   y1="144.57872"
   x2="125.97288"
   y2="126.17776"
   id="linearGradient4134"
   xlink:href="#linearGradient3806"
   gradientUnits="userSpaceOnUse"
   gradientTransform="translate(-22.6001,-24.0137)" /><linearGradient
   x1="128.54237"
   y1="125.69491"
   x2="140.12811"
   y2="107.0519"
   id="linearGradient4132"
   xlink:href="#linearGradient3806"
   gradientUnits="userSpaceOnUse"
   gradientTransform="translate(-22.6001,-24.0137)" /><linearGradient
   x1="92.066544"
   y1="149.69492"
   x2="109.70607"
   y2="130.98305"
   id="linearGradient4130"
   xlink:href="#linearGradient3806"
   gradientUnits="userSpaceOnUse"
   gradientTransform="translate(-22.6001,-24.0137)" /><linearGradient
   x1="97.600105"
   y1="134.23729"
   x2="98.440681"
   y2="40.783253"
   id="linearGradient4128"
   xlink:href="#linearGradient3806"
   gradientUnits="userSpaceOnUse"
   gradientTransform="translate(-22.6001,-24.0137)" /><linearGradient
   x1="97.600105"
   y1="202.37288"
   x2="97.600105"
   y2="135.86441"
   id="linearGradient4126"
   xlink:href="#linearGradient3806"
   gradientUnits="userSpaceOnUse"
   gradientTransform="translate(-22.6001,-24.0137)" /><linearGradient
   x1="150.09099"
   y1="113.06593"
   x2="152.73506"
   y2="91.903961"
   id="linearGradient4124"
   xlink:href="#linearGradient3806"
   gradientUnits="userSpaceOnUse"
   gradientTransform="translate(-22.6001,-24.0137)" /><linearGradient
   x1="119.88651"
   y1="101.49152"
   x2="111.66102"
   y2="64.271187"
   id="linearGradient4122"
   xlink:href="#linearGradient3806"
   gradientUnits="userSpaceOnUse"
   gradientTransform="matrix(-1,0,0,1,172.6,-24.0137)" /><linearGradient
   x1="129.35593"
   y1="88.474571"
   x2="124.76414"
   y2="76.881355"
   id="linearGradient4120"
   xlink:href="#linearGradient3806"
   gradientUnits="userSpaceOnUse"
   gradientTransform="matrix(-1,0,0,1,172.6,-24.0137)" /><linearGradient
   x1="109.70607"
   y1="94.372879"
   x2="97.016945"
   y2="66.858604"
   id="linearGradient4118"
   xlink:href="#linearGradient3806"
   gradientUnits="userSpaceOnUse"
   gradientTransform="matrix(-1,0,0,1,172.6,-24.0137)" /><linearGradient
   x1="133.41924"
   y1="96.996918"
   x2="130.01176"
   y2="84.280075"
   id="linearGradient4116"
   xlink:href="#linearGradient3806"
   gradientUnits="userSpaceOnUse"
   gradientTransform="matrix(-1,0,0,1,172.6,-24.0137)" /><linearGradient
   x1="118.37289"
   y1="137.49153"
   x2="133.42372"
   y2="118.65607"
   id="linearGradient4114"
   xlink:href="#linearGradient3806"
   gradientUnits="userSpaceOnUse"
   gradientTransform="matrix(-1,0,0,1,172.6,-24.0137)" /><linearGradient
   x1="103.22386"
   y1="144.57872"
   x2="125.97288"
   y2="126.17776"
   id="linearGradient4112"
   xlink:href="#linearGradient3806"
   gradientUnits="userSpaceOnUse"
   gradientTransform="matrix(-1,0,0,1,172.6,-24.0137)" /><linearGradient
   x1="128.54237"
   y1="125.69491"
   x2="140.12811"
   y2="107.0519"
   id="linearGradient4110"
   xlink:href="#linearGradient3806"
   gradientUnits="userSpaceOnUse"
   gradientTransform="matrix(-1,0,0,1,172.6,-24.0137)" /><linearGradient
   x1="92.066544"
   y1="149.69492"
   x2="109.70607"
   y2="130.98305"
   id="linearGradient4108"
   xlink:href="#linearGradient3806"
   gradientUnits="userSpaceOnUse"
   gradientTransform="matrix(-1,0,0,1,172.6,-24.0137)" /><linearGradient
   x1="150.09099"
   y1="113.06593"
   x2="152.73506"
   y2="91.903961"
   id="linearGradient4106"
   xlink:href="#linearGradient3806"
   gradientUnits="userSpaceOnUse"
   gradientTransform="matrix(-1,0,0,1,172.6,-24.0137)" /><linearGradient
   x1="113.61648"
   y1="107.23558"
   x2="113.61648"
   y2="83.760223"
   id="linearGradient4056"
   xlink:href="#linearGradient3806"
   gradientUnits="userSpaceOnUse" /><radialGradient
   cx="113.61648"
   cy="95.497902"
   r="11.489363"
   fx="113.61648"
   fy="95.497902"
   id="radialGradient4054"
   xlink:href="#linearGradient3814"
   gradientUnits="userSpaceOnUse" /><linearGradient
   x1="119.88651"
   y1="101.49152"
   x2="111.66102"
   y2="64.271187"
   id="linearGradient4052"
   xlink:href="#linearGradient3806"
   gradientUnits="userSpaceOnUse" /><linearGradient
   x1="129.35593"
   y1="88.474571"
   x2="124.76414"
   y2="76.881355"
   id="linearGradient4050"
   xlink:href="#linearGradient3806"
   gradientUnits="userSpaceOnUse" /><linearGradient
   x1="109.70607"
   y1="94.372879"
   x2="97.016945"
   y2="66.858604"
   id="linearGradient4048"
   xlink:href="#linearGradient3806"
   gradientUnits="userSpaceOnUse" /><linearGradient
   x1="133.41924"
   y1="96.996918"
   x2="130.01176"
   y2="84.280075"
   id="linearGradient4046"
   xlink:href="#linearGradient3806"
   gradientUnits="userSpaceOnUse" /><linearGradient
   x1="118.37289"
   y1="137.49153"
   x2="133.42372"
   y2="118.65607"
   id="linearGradient4044"
   xlink:href="#linearGradient3806"
   gradientUnits="userSpaceOnUse"
   gradientTransform="translate(-22.6001,-24.0137)" /><linearGradient
   x1="103.22386"
   y1="144.57872"
   x2="125.97288"
   y2="126.17776"
   id="linearGradient4042"
   xlink:href="#linearGradient3806"
   gradientUnits="userSpaceOnUse"
   gradientTransform="translate(-22.6001,-24.0137)" /><linearGradient
   x1="128.54237"
   y1="125.69491"
   x2="140.12811"
   y2="107.0519"
   id="linearGradient4040"
   xlink:href="#linearGradient3806"
   gradientUnits="userSpaceOnUse"
   gradientTransform="translate(-22.6001,-24.0137)" /><linearGradient
   x1="92.066544"
   y1="149.69492"
   x2="109.70607"
   y2="130.98305"
   id="linearGradient4038"
   xlink:href="#linearGradient3806"
   gradientUnits="userSpaceOnUse"
   gradientTransform="translate(-22.6001,-24.0137)" /><linearGradient
   x1="97.600105"
   y1="134.23729"
   x2="98.440681"
   y2="40.783253"
   id="linearGradient4036"
   xlink:href="#linearGradient3806"
   gradientUnits="userSpaceOnUse"
   gradientTransform="translate(-22.6001,-24.0137)" /><linearGradient
   x1="97.600105"
   y1="202.37288"
   x2="97.600105"
   y2="135.86441"
   id="linearGradient4034"
   xlink:href="#linearGradient3806"
   gradientUnits="userSpaceOnUse"
   gradientTransform="translate(-22.6001,-24.0137)" /><linearGradient
   x1="150.09099"
   y1="113.06593"
   x2="152.73506"
   y2="91.903961"
   id="linearGradient4032"
   xlink:href="#linearGradient3806"
   gradientUnits="userSpaceOnUse"
   gradientTransform="translate(-22.6001,-24.0137)" /><linearGradient
   x1="119.88651"
   y1="101.49152"
   x2="111.66102"
   y2="64.271187"
   id="linearGradient4030"
   xlink:href="#linearGradient3806"
   gradientUnits="userSpaceOnUse"
   gradientTransform="matrix(-1,0,0,1,172.6,-24.0137)" /><linearGradient
   x1="129.35593"
   y1="88.474571"
   x2="124.76414"
   y2="76.881355"
   id="linearGradient4028"
   xlink:href="#linearGradient3806"
   gradientUnits="userSpaceOnUse"
   gradientTransform="matrix(-1,0,0,1,172.6,-24.0137)" /><linearGradient
   x1="109.70607"
   y1="94.372879"
   x2="97.016945"
   y2="66.858604"
   id="linearGradient4026"
   xlink:href="#linearGradient3806"
   gradientUnits="userSpaceOnUse"
   gradientTransform="matrix(-1,0,0,1,172.6,-24.0137)" /><linearGradient
   x1="133.41924"
   y1="96.996918"
   x2="130.01176"
   y2="84.280075"
   id="linearGradient4024"
   xlink:href="#linearGradient3806"
   gradientUnits="userSpaceOnUse"
   gradientTransform="matrix(-1,0,0,1,172.6,-24.0137)" /><linearGradient
   x1="118.37289"
   y1="137.49153"
   x2="133.42372"
   y2="118.65607"
   id="linearGradient4022"
   xlink:href="#linearGradient3806"
   gradientUnits="userSpaceOnUse"
   gradientTransform="matrix(-1,0,0,1,172.6,-24.0137)" /><linearGradient
   x1="103.22386"
   y1="144.57872"
   x2="125.97288"
   y2="126.17776"
   id="linearGradient4020"
   xlink:href="#linearGradient3806"
   gradientUnits="userSpaceOnUse"
   gradientTransform="matrix(-1,0,0,1,172.6,-24.0137)" /><linearGradient
   x1="128.54237"
   y1="125.69491"
   x2="140.12811"
   y2="107.0519"
   id="linearGradient4018"
   xlink:href="#linearGradient3806"
   gradientUnits="userSpaceOnUse"
   gradientTransform="matrix(-1,0,0,1,172.6,-24.0137)" /><linearGradient
   x1="92.066544"
   y1="149.69492"
   x2="109.70607"
   y2="130.98305"
   id="linearGradient4016"
   xlink:href="#linearGradient3806"
   gradientUnits="userSpaceOnUse"
   gradientTransform="matrix(-1,0,0,1,172.6,-24.0137)" /><linearGradient
   x1="150.09099"
   y1="113.06593"
   x2="152.73506"
   y2="91.903961"
   id="linearGradient4014"
   xlink:href="#linearGradient3806"
   gradientUnits="userSpaceOnUse"
   gradientTransform="matrix(-1,0,0,1,172.6,-24.0137)" /><linearGradient
   id="linearGradient3814"><stop
     id="stop3816"
     style="stop-color:#000000;stop-opacity:1"
     offset="0" /><stop
     id="stop3826"
     style="stop-color:#6c6c6c;stop-opacity:1"
     offset="0.62953144" /><stop
     id="stop3824"
     style="stop-color:#e6e6e6;stop-opacity:1"
     offset="0.79758716" /><stop
     id="stop3818"
     style="stop-color:#666666;stop-opacity:1"
     offset="1" /></linearGradient><linearGradient
   id="linearGradient3806"><stop
     id="stop3808"
     style="stop-color:#6a6a6a;stop-opacity:1"
     offset="0" /><stop
     id="stop3810"
     style="stop-color:#e6e6e6;stop-opacity:1"
     offset="1" /></linearGradient><style
   type="text/css"
   id="style6-57" /><mask
   id="id1"><linearGradient
     x1="180.092"
     y1="105.833"
     x2="106.409"
     y2="107.504"
     id="id2"
     gradientUnits="userSpaceOnUse"><stop
       id="stop13"
       style="stop-color:#ffffff;stop-opacity:1"
       offset="0" /><stop
       id="stop15"
       style="stop-color:#ffffff;stop-opacity:0"
       offset="1" /></linearGradient><rect
     width="261.25101"
     height="90.103104"
     x="12.6248"
     y="61.616798"
     id="rect17"
     style="fill:url(#id2) #000000" /></mask><style
   type="text/css"
   id="style6-5" /><mask
   id="id1-8"><linearGradient
     x1="180.092"
     y1="105.833"
     x2="106.409"
     y2="107.504"
     id="id2-8"
     gradientUnits="userSpaceOnUse"><stop
       id="stop13-2"
       style="stop-color:#ffffff;stop-opacity:1"
       offset="0" /><stop
       id="stop15-4"
       style="stop-color:#ffffff;stop-opacity:0"
       offset="1" /></linearGradient><rect
     width="261.25101"
     height="90.103104"
     x="12.6248"
     y="61.616798"
     id="rect17-5"
     style="fill:url(#id2-8)" /></mask><linearGradient
   x1="150.09099"
   y1="113.06593"
   x2="152.73506"
   y2="91.903961"
   id="linearGradient4009"
   xlink:href="#linearGradient3806"
   gradientUnits="userSpaceOnUse"
   gradientTransform="matrix(-1,0,0,1,195.2,0)" /><linearGradient
   x1="92.066544"
   y1="149.69492"
   x2="109.70607"
   y2="130.98305"
   id="linearGradient4011"
   xlink:href="#linearGradient3806"
   gradientUnits="userSpaceOnUse"
   gradientTransform="matrix(-1,0,0,1,195.2,0)" /><linearGradient
   x1="128.54237"
   y1="125.69491"
   x2="140.12811"
   y2="107.0519"
   id="linearGradient4013"
   xlink:href="#linearGradient3806"
   gradientUnits="userSpaceOnUse"
   gradientTransform="matrix(-1,0,0,1,195.2,0)" /><linearGradient
   x1="103.22386"
   y1="144.57872"
   x2="125.97288"
   y2="126.17776"
   id="linearGradient4015"
   xlink:href="#linearGradient3806"
   gradientUnits="userSpaceOnUse"
   gradientTransform="matrix(-1,0,0,1,195.2,0)" /><linearGradient
   x1="118.37289"
   y1="137.49153"
   x2="133.42372"
   y2="118.65607"
   id="linearGradient4017"
   xlink:href="#linearGradient3806"
   gradientUnits="userSpaceOnUse"
   gradientTransform="matrix(-1,0,0,1,195.2,0)" /><linearGradient
   x1="133.41924"
   y1="96.996918"
   x2="130.01176"
   y2="84.280075"
   id="linearGradient4019"
   xlink:href="#linearGradient3806"
   gradientUnits="userSpaceOnUse"
   gradientTransform="matrix(-1,0,0,1,195.2,0)" /><linearGradient
   x1="109.70607"
   y1="94.372879"
   x2="97.016945"
   y2="66.858604"
   id="linearGradient4021"
   xlink:href="#linearGradient3806"
   gradientUnits="userSpaceOnUse"
   gradientTransform="matrix(-1,0,0,1,195.2,0)" /><linearGradient
   x1="129.35593"
   y1="88.474571"
   x2="124.76414"
   y2="76.881355"
   id="linearGradient4023"
   xlink:href="#linearGradient3806"
   gradientUnits="userSpaceOnUse"
   gradientTransform="matrix(-1,0,0,1,195.2,0)" /><linearGradient
   x1="119.88651"
   y1="101.49152"
   x2="111.66102"
   y2="64.271187"
   id="linearGradient4025"
   xlink:href="#linearGradient3806"
   gradientUnits="userSpaceOnUse"
   gradientTransform="matrix(-1,0,0,1,195.2,0)" /><linearGradient
   x1="150.09099"
   y1="113.06593"
   x2="152.73506"
   y2="91.903961"
   id="linearGradient4027"
   xlink:href="#linearGradient3806"
   gradientUnits="userSpaceOnUse" /><linearGradient
   x1="97.600105"
   y1="202.37288"
   x2="97.600105"
   y2="135.86441"
   id="linearGradient4029"
   xlink:href="#linearGradient3806"
   gradientUnits="userSpaceOnUse" /><linearGradient
   x1="97.600105"
   y1="134.23729"
   x2="98.440681"
   y2="40.783253"
   id="linearGradient4031"
   xlink:href="#linearGradient3806"
   gradientUnits="userSpaceOnUse" /><linearGradient
   x1="92.066544"
   y1="149.69492"
   x2="109.70607"
   y2="130.98305"
   id="linearGradient4033"
   xlink:href="#linearGradient3806"
   gradientUnits="userSpaceOnUse" /><linearGradient
   x1="128.54237"
   y1="125.69491"
   x2="140.12811"
   y2="107.0519"
   id="linearGradient4035"
   xlink:href="#linearGradient3806"
   gradientUnits="userSpaceOnUse" /><linearGradient
   x1="103.22386"
   y1="144.57872"
   x2="125.97288"
   y2="126.17776"
   id="linearGradient4037"
   xlink:href="#linearGradient3806"
   gradientUnits="userSpaceOnUse" /><linearGradient
   x1="118.37289"
   y1="137.49153"
   x2="133.42372"
   y2="118.65607"
   id="linearGradient4039"
   xlink:href="#linearGradient3806"
   gradientUnits="userSpaceOnUse" /><linearGradient
   x1="133.41924"
   y1="96.996918"
   x2="130.01176"
   y2="84.280075"
   id="linearGradient4041"
   xlink:href="#linearGradient3806"
   gradientUnits="userSpaceOnUse" /><linearGradient
   x1="109.70607"
   y1="94.372879"
   x2="97.016945"
   y2="66.858604"
   id="linearGradient4043"
   xlink:href="#linearGradient3806"
   gradientUnits="userSpaceOnUse" /><linearGradient
   x1="129.35593"
   y1="88.474571"
   x2="124.76414"
   y2="76.881355"
   id="linearGradient4045"
   xlink:href="#linearGradient3806"
   gradientUnits="userSpaceOnUse" /><linearGradient
   x1="119.88651"
   y1="101.49152"
   x2="111.66102"
   y2="64.271187"
   id="linearGradient4047"
   xlink:href="#linearGradient3806"
   gradientUnits="userSpaceOnUse" /><radialGradient
   cx="113.61648"
   cy="95.497902"
   r="11.489363"
   fx="113.61648"
   fy="95.497902"
   id="radialGradient4049"
   xlink:href="#linearGradient3814"
   gradientUnits="userSpaceOnUse" /><linearGradient
   x1="113.61648"
   y1="107.23558"
   x2="113.61648"
   y2="83.760223"
   id="linearGradient4051"
   xlink:href="#linearGradient3806"
   gradientUnits="userSpaceOnUse" /><linearGradient
   x1="118.37289"
   y1="137.49153"
   x2="133.42372"
   y2="118.65607"
   id="linearGradient3808"
   xlink:href="#linearGradient3806"
   gradientUnits="userSpaceOnUse"
   gradientTransform="translate(-22.6001,-24.0137)" /><linearGradient
   x1="103.22386"
   y1="144.57872"
   x2="125.97288"
   y2="126.17776"
   id="linearGradient3811"
   xlink:href="#linearGradient3806"
   gradientUnits="userSpaceOnUse"
   gradientTransform="translate(-22.6001,-24.0137)" /><linearGradient
   x1="128.54237"
   y1="125.69491"
   x2="140.12811"
   y2="107.0519"
   id="linearGradient3815"
   xlink:href="#linearGradient3806"
   gradientUnits="userSpaceOnUse"
   gradientTransform="translate(-22.6001,-24.0137)" /><linearGradient
   x1="92.066544"
   y1="149.69492"
   x2="109.70607"
   y2="130.98305"
   id="linearGradient3818"
   xlink:href="#linearGradient3806"
   gradientUnits="userSpaceOnUse"
   gradientTransform="translate(-22.6001,-24.0137)" /><linearGradient
   x1="97.600105"
   y1="134.23729"
   x2="98.440681"
   y2="40.783253"
   id="linearGradient3821"
   xlink:href="#linearGradient3806"
   gradientUnits="userSpaceOnUse"
   gradientTransform="translate(-22.6001,-24.0137)" /><linearGradient
   x1="97.600105"
   y1="202.37288"
   x2="97.600105"
   y2="135.86441"
   id="linearGradient3824"
   xlink:href="#linearGradient3806"
   gradientUnits="userSpaceOnUse"
   gradientTransform="translate(-22.6001,-24.0137)" /><linearGradient
   x1="150.09099"
   y1="113.06593"
   x2="152.73506"
   y2="91.903961"
   id="linearGradient3827"
   xlink:href="#linearGradient3806"
   gradientUnits="userSpaceOnUse"
   gradientTransform="translate(-22.6001,-24.0137)" /><linearGradient
   x1="119.88651"
   y1="101.49152"
   x2="111.66102"
   y2="64.271187"
   id="linearGradient3830"
   xlink:href="#linearGradient3806"
   gradientUnits="userSpaceOnUse"
   gradientTransform="matrix(-1,0,0,1,172.6,-24.0137)" /><linearGradient
   x1="129.35593"
   y1="88.474571"
   x2="124.76414"
   y2="76.881355"
   id="linearGradient3833"
   xlink:href="#linearGradient3806"
   gradientUnits="userSpaceOnUse"
   gradientTransform="matrix(-1,0,0,1,172.6,-24.0137)" /><linearGradient
   x1="109.70607"
   y1="94.372879"
   x2="97.016945"
   y2="66.858604"
   id="linearGradient3836"
   xlink:href="#linearGradient3806"
   gradientUnits="userSpaceOnUse"
   gradientTransform="matrix(-1,0,0,1,172.6,-24.0137)" /><linearGradient
   x1="133.41924"
   y1="96.996918"
   x2="130.01176"
   y2="84.280075"
   id="linearGradient3839"
   xlink:href="#linearGradient3806"
   gradientUnits="userSpaceOnUse"
   gradientTransform="matrix(-1,0,0,1,172.6,-24.0137)" /><linearGradient
   x1="118.37289"
   y1="137.49153"
   x2="133.42372"
   y2="118.65607"
   id="linearGradient3843"
   xlink:href="#linearGradient3806"
   gradientUnits="userSpaceOnUse"
   gradientTransform="matrix(-1,0,0,1,172.6,-24.0137)" /><linearGradient
   x1="103.22386"
   y1="144.57872"
   x2="125.97288"
   y2="126.17776"
   id="linearGradient3846"
   xlink:href="#linearGradient3806"
   gradientUnits="userSpaceOnUse"
   gradientTransform="matrix(-1,0,0,1,172.6,-24.0137)" /><linearGradient
   x1="128.54237"
   y1="125.69491"
   x2="140.12811"
   y2="107.0519"
   id="linearGradient3849"
   xlink:href="#linearGradient3806"
   gradientUnits="userSpaceOnUse"
   gradientTransform="matrix(-1,0,0,1,172.6,-24.0137)" /><linearGradient
   x1="92.066544"
   y1="149.69492"
   x2="109.70607"
   y2="130.98305"
   id="linearGradient3853"
   xlink:href="#linearGradient3806"
   gradientUnits="userSpaceOnUse"
   gradientTransform="matrix(-1,0,0,1,172.6,-24.0137)" /><linearGradient
   x1="150.09099"
   y1="113.06593"
   x2="152.73506"
   y2="91.903961"
   id="linearGradient3857"
   xlink:href="#linearGradient3806"
   gradientUnits="userSpaceOnUse"
   gradientTransform="matrix(-1,0,0,1,172.6,-24.0137)" />
 <style
   type="text/css"
   id="style6-3" />
  
  
  
 
   
   
   
   
   
   
   
  
    
    
   
    
    
   
    
    
   
    
    
   </defs>
 <path
   d="m 0.0247477,2.27419 0,6.70574 4.42712,0 0,-6.70574 -2.878e-4,0 c 1.882e-4,-0.011942 2.878e-4,-0.023896 2.878e-4,-0.035882 0,-1.22231 -0.991258,-2.21356 -2.21357,-2.21356 -1.2223,0 -2.21356,0.991247 -2.21356,2.21356 0,0.011987 8.854e-5,0.02394 2.767e-4,0.035882 l -2.767e-4,0 z"
   id="_159890352"
   style="fill:#626d55" />
<path
   d=""
   id="path4639"
   style="fill:#1af2f7;fill-opacity:1;fill-rule:evenodd;stroke:#ded626;stroke-width:0.03272179;stroke-linecap:round;stroke-linejoin:miter;stroke-miterlimit:4;stroke-opacity:0.551724;stroke-dasharray:none;stroke-dashoffset:0" /><g
   transform="matrix(0.01120375,0,0,0.01120375,1.3985875,1.6672375)"
   id="g3875"
   style="fill-rule:evenodd"><path
     d="m 18.59942,68.418398 c -9.50851,0 -15.83343,3.146595 -18.09942,6.581598 2.26599,3.435002 8.59091,6.581612 18.09942,6.581612 9.50852,0 24.50035,-2.25079 39.54271,-4.45851 l 0,-2.123102 0,-2.1231 C 43.09977,70.669189 28.10794,68.418398 18.59942,68.418398 z"
     id="path3980"
     style="fill:url(#linearGradient4014);fill-opacity:1;stroke:#808080;stroke-width:0.99999994;stroke-miterlimit:4;stroke-opacity:1;stroke-dasharray:none" /><path
     d="m 65.563543,122.0367 c -2.48245,7.64019 -6.66205,11.90082 -10.01371,12.82475 -2.16846,-2.71754 -3.0455,-8.62116 -0.56306,-16.26135 2.48245,-7.64018 8.20499,-19.098652 13.90611,-30.608932 l 1.70593,0.55428 1.70593,0.5543 c -2.15328,12.663062 -4.25876,25.296782 -6.7412,32.936952 z"
     id="path3932"
     style="fill:url(#linearGradient4016);fill-opacity:1;stroke:#808080;stroke-width:0.99999994;stroke-miterlimit:4;stroke-opacity:1;stroke-dasharray:none" /><path
     d="m 31.399903,95.013218 c -7.64019,2.48245 -13.54383,1.60541 -16.26136,-0.56305 0.92395,-3.35166 5.18458,-7.53126 12.82476,-10.0137 7.64018,-2.48246 20.2739,-4.58794 32.93695,-6.74121 l 0.55429,1.70593 0.55429,1.70593 c -11.5103,5.70112 -22.96877,11.42367 -30.60893,13.9061 z"
     id="path3934"
     style="fill:url(#linearGradient4018);fill-opacity:1;stroke:#808080;stroke-width:0.99999994;stroke-miterlimit:4;stroke-opacity:1;stroke-dasharray:none" /><path
     d="m 54.196583,112.00458 c -4.17833,5.75097 -8.86083,8.19374 -11.93414,8.05481 -1.08183,-2.87997 -0.20561,-8.08815 3.97272,-13.83913 4.17833,-5.75098 12.12753,-13.829342 20.07288,-21.957172 l 1.2841,0.93295 1.2841,0.93296 c -5.27479,10.06812 -10.50133,20.124622 -14.67966,25.875582 z"
     id="path3936"
     style="fill:url(#linearGradient4020);fill-opacity:1;stroke:#808080;stroke-width:0.99999994;stroke-miterlimit:4;stroke-opacity:1;stroke-dasharray:none" /><path
     d="m 43.779733,103.76484 c -5.75097,4.17833 -10.95915,5.05456 -13.83912,3.97273 -0.13892,-3.07334 2.30383,-7.755812 8.05481,-11.934152 5.75098,-4.17835 15.80747,-9.40488 25.87558,-14.67966 l 0.93296,1.28409 0.93295,1.28411 c -8.12785,7.94535 -16.20621,15.89458 -21.95718,20.072882 z"
     id="path3938"
     style="fill:url(#linearGradient4022);fill-opacity:1;stroke:#808080;stroke-width:0.99999994;stroke-miterlimit:4;stroke-opacity:1;stroke-dasharray:none" /><path
     d="m 27.963303,65.563542 c -7.64018,-2.48245 -11.90082,-6.662058 -12.82476,-10.013705 2.71755,-2.168467 8.62118,-3.045505 16.26136,-0.563059 7.64018,2.482442 19.09865,8.204984 30.60893,13.906106 l -0.55429,1.705935 -0.55429,1.705924 C 48.237193,70.15146 35.603463,68.045982 27.963303,65.563542 z"
     id="path3868"
     style="fill:url(#linearGradient4024);fill-opacity:1;stroke:#808080;stroke-width:0.99999994;stroke-miterlimit:4;stroke-opacity:1;stroke-dasharray:none" /><path
     d="m 54.986773,31.399901 c -2.48244,-7.640184 -1.6054,-13.543819 0.56306,-16.261355 3.35166,0.923952 7.53126,5.184576 10.01371,12.824755 2.48245,7.640181 4.58793,20.273902 6.7412,32.936951 l -1.70593,0.554292 -1.70593,0.554289 C 63.191763,50.49853 57.469213,39.040062 54.986773,31.399901 z"
     id="path3870"
     style="fill:url(#linearGradient4026);fill-opacity:1;stroke:#808080;stroke-width:0.99999994;stroke-miterlimit:4;stroke-opacity:1;stroke-dasharray:none" /><path
     d="m 37.995413,54.196588 c -5.75096,-4.178328 -8.19373,-8.860834 -8.0548,-11.934144 2.87998,-1.081831 8.08814,-0.205608 13.83913,3.972718 5.75098,4.178331 13.82934,12.127534 21.95717,20.07288 l -0.93295,1.284097 -0.93296,1.284108 C 53.802883,63.60145 43.746373,58.374913 37.995413,54.196588 z"
     id="path3872"
     style="fill:url(#linearGradient4028);fill-opacity:1;stroke:#808080;stroke-width:0.99999994;stroke-miterlimit:4;stroke-opacity:1;stroke-dasharray:none" /><path
     d="m 46.235163,43.779736 c -4.17833,-5.750973 -5.05456,-10.959157 -3.97273,-13.839119 3.07333,-0.138919 7.75582,2.303829 11.93416,8.054807 4.17833,5.750979 9.40487,15.80747 14.67965,25.875582 l -1.2841,0.932955 -1.2841,0.932953 C 58.362693,57.609068 50.413473,49.530702 46.235163,43.779736 z"
     id="path3874"
     style="fill:url(#linearGradient4030);fill-opacity:1;stroke:#808080;stroke-width:0.99999994;stroke-miterlimit:4;stroke-opacity:1;stroke-dasharray:none" /><path
     d="m 131.40058,68.418398 c 9.50851,0 15.83343,3.146595 18.09942,6.581598 -2.26599,3.435002 -8.59091,6.581612 -18.09942,6.581612 -9.50852,0 -24.50035,-2.25079 -39.542707,-4.45851 l 0,-2.123102 0,-2.1231 c 15.042357,-2.207707 30.034187,-4.458498 39.542707,-4.458498 z"
     id="path3754"
     style="fill:url(#linearGradient4032);fill-opacity:1;stroke:#808080;stroke-width:0.99999994;stroke-miterlimit:4;stroke-opacity:1;stroke-dasharray:none" /><path
     d="m 68.418391,131.40059 c 0,9.5085 3.146602,15.83342 6.581606,18.09941 3.435006,-2.26599 6.581606,-8.59091 6.581606,-18.09941 0,-9.50851 -2.25079,-24.50036 -4.458508,-39.542722 l -2.123098,0 -2.123099,0 c -2.207713,15.042362 -4.458507,30.034212 -4.458507,39.542722 z"
     id="path3760"
     style="fill:url(#linearGradient4034);fill-opacity:1;stroke:#808080;stroke-width:0.99999994;stroke-miterlimit:4;stroke-opacity:1;stroke-dasharray:none" /><path
     d="m 68.418391,18.599414 c 0,-9.508512 3.146602,-15.833426 6.581606,-18.099414 3.435006,2.265988 6.581606,8.590902 6.581606,18.099414 0,9.508514 -2.25079,24.500349 -4.458508,39.542709 l -2.123098,0 -2.123099,0 C 70.669185,43.099763 68.418391,28.107928 68.418391,18.599414 z"
     id="path3762"
     style="fill:url(#linearGradient4036);fill-opacity:1;stroke:#808080;stroke-width:0.99999994;stroke-miterlimit:4;stroke-opacity:1;stroke-dasharray:none" /><path
     d="m 84.436453,122.0367 c 2.48245,7.64019 6.66205,11.90082 10.01371,12.82475 2.16846,-2.71754 3.0455,-8.62116 0.56306,-16.26135 -2.48245,-7.64018 -8.20499,-19.098652 -13.90611,-30.608932 l -1.70593,0.55428 -1.70593,0.5543 c 2.15328,12.663062 4.25876,25.296782 6.7412,32.936952 z"
     id="path3764"
     style="fill:url(#linearGradient4038);fill-opacity:1;stroke:#808080;stroke-width:0.99999994;stroke-miterlimit:4;stroke-opacity:1;stroke-dasharray:none" /><path
     d="m 118.60009,95.013218 c 7.64019,2.48245 13.54383,1.60541 16.26136,-0.56305 -0.92395,-3.35166 -5.18458,-7.53126 -12.82476,-10.0137 -7.64018,-2.48246 -20.2739,-4.58794 -32.936947,-6.74121 l -0.55429,1.70593 -0.55429,1.70593 c 11.5103,5.70112 22.968767,11.42367 30.608927,13.9061 z"
     id="path3768"
     style="fill:url(#linearGradient4040);fill-opacity:1;stroke:#808080;stroke-width:0.99999994;stroke-miterlimit:4;stroke-opacity:1;stroke-dasharray:none" /><path
     d="m 95.803413,112.00458 c 4.17833,5.75097 8.860827,8.19374 11.934137,8.05481 1.08183,-2.87997 0.20561,-8.08815 -3.97272,-13.83913 C 99.586503,100.46928 91.637303,92.390918 83.691953,84.263088 l -1.2841,0.93295 -1.2841,0.93296 c 5.27479,10.06812 10.50133,20.124622 14.67966,25.875582 z"
     id="path3780"
     style="fill:url(#linearGradient4042);fill-opacity:1;stroke:#808080;stroke-width:0.99999994;stroke-miterlimit:4;stroke-opacity:1;stroke-dasharray:none" /><path
     d="m 106.22026,103.76484 c 5.75097,4.17833 10.95915,5.05456 13.83912,3.97273 0.13892,-3.07334 -2.30383,-7.755812 -8.05481,-11.934152 -5.75098,-4.17835 -15.807467,-9.40488 -25.875577,-14.67966 l -0.93296,1.28409 -0.93295,1.28411 c 8.12785,7.94535 16.206207,15.89458 21.957177,20.072882 z"
     id="path3784"
     style="fill:url(#linearGradient4044);fill-opacity:1;stroke:#808080;stroke-width:0.99999994;stroke-miterlimit:4;stroke-opacity:1;stroke-dasharray:none" /><g
     transform="translate(-22.6001,-24.0137)"
     id="g3860"
     style="stroke:#808080;stroke-opacity:1"><path
       d="m 144.6368,89.577274 c 7.64018,-2.48245 11.90082,-6.662058 12.82476,-10.013705 -2.71755,-2.168467 -8.62118,-3.045505 -16.26136,-0.563059 -7.64018,2.482442 -19.09865,8.204984 -30.60893,13.906106 l 0.55429,1.705935 0.55429,1.705924 c 12.66306,-2.153283 25.29679,-4.258761 32.93695,-6.741201 z"
       id="path3772"
       style="fill:url(#linearGradient4046);fill-opacity:1;stroke:#808080;stroke-width:0.99999994;stroke-miterlimit:4;stroke-opacity:1;stroke-dasharray:none" /><path
       d="m 117.61333,55.413633 c 2.48244,-7.640184 1.6054,-13.543819 -0.56306,-16.261355 -3.35166,0.923952 -7.53126,5.184576 -10.01371,12.824755 -2.48245,7.640181 -4.58793,20.273902 -6.7412,32.936951 l 1.70593,0.554292 1.70593,0.554289 c 5.70112,-11.510303 11.42367,-22.968771 13.90611,-30.608932 z"
       id="path3776"
       style="fill:url(#linearGradient4048);fill-opacity:1;stroke:#808080;stroke-width:0.99999994;stroke-miterlimit:4;stroke-opacity:1;stroke-dasharray:none" /><path
       d="m 134.60469,78.21032 c 5.75096,-4.178328 8.19373,-8.860834 8.0548,-11.934144 -2.87998,-1.081831 -8.08814,-0.205608 -13.83913,3.972718 -5.75098,4.178331 -13.82934,12.127534 -21.95717,20.07288 l 0.93295,1.284097 0.93296,1.284108 c 10.06812,-5.274797 20.12463,-10.501334 25.87559,-14.679659 z"
       id="path3788"
       style="fill:url(#linearGradient4050);fill-opacity:1;stroke:#808080;stroke-width:0.99999994;stroke-miterlimit:4;stroke-opacity:1;stroke-dasharray:none" /><path
       d="m 126.36494,67.793468 c 4.17833,-5.750973 5.05456,-10.959157 3.97273,-13.839119 -3.07333,-0.138919 -7.75582,2.303829 -11.93416,8.054807 -4.17833,5.750979 -9.40487,15.80747 -14.67965,25.875582 l 1.2841,0.932955 1.2841,0.932953 c 7.94535,-8.127846 15.89457,-16.206212 20.07288,-21.957178 z"
       id="path3792"
       style="fill:url(#linearGradient4052);fill-opacity:1;stroke:#808080;stroke-width:0.99999994;stroke-miterlimit:4;stroke-opacity:1;stroke-dasharray:none" /></g><path
     d="m 124.61858,95.497902 a 11.002102,11.002102 0 1 1 -22.0042,0 11.002102,11.002102 0 1 1 22.0042,0 z"
     transform="matrix(0,-1.74288,1.74288,0,-91.4417,273.02)"
     id="path3796"
     style="fill:url(#radialGradient4054);fill-opacity:1;stroke:#808080;stroke-width:0.57376182;stroke-miterlimit:4;stroke-opacity:1;stroke-dasharray:none" /><path
     d="m 124.61858,95.497902 a 11.002102,11.002102 0 1 1 -22.0042,0 11.002102,11.002102 0 1 1 22.0042,0 z"
     transform="matrix(1.15452,0,0,1.15452,-56.1727,-35.2544)"
     id="path3798"
     style="fill:url(#linearGradient4056);fill-opacity:1;stroke:#808080;stroke-width:0.86615962;stroke-miterlimit:4;stroke-opacity:1;stroke-dasharray:none" /></g><g
   transform="matrix(0.01120375,0,0,0.01120375,1.3985875,3.6637527)"
   id="g4058"
   style="fill-rule:evenodd"><path
     d="m 18.59942,68.418398 c -9.50851,0 -15.83343,3.146595 -18.09942,6.581598 2.26599,3.435002 8.59091,6.581612 18.09942,6.581612 9.50852,0 24.50035,-2.25079 39.54271,-4.45851 l 0,-2.123102 0,-2.1231 C 43.09977,70.669189 28.10794,68.418398 18.59942,68.418398 z"
     id="path4060"
     style="fill:url(#linearGradient4106);fill-opacity:1;stroke:#808080;stroke-width:0.99999994;stroke-miterlimit:4;stroke-opacity:1;stroke-dasharray:none" /><path
     d="m 65.563543,122.0367 c -2.48245,7.64019 -6.66205,11.90082 -10.01371,12.82475 -2.16846,-2.71754 -3.0455,-8.62116 -0.56306,-16.26135 2.48245,-7.64018 8.20499,-19.098652 13.90611,-30.608932 l 1.70593,0.55428 1.70593,0.5543 c -2.15328,12.663062 -4.25876,25.296782 -6.7412,32.936952 z"
     id="path4062"
     style="fill:url(#linearGradient4108);fill-opacity:1;stroke:#808080;stroke-width:0.99999994;stroke-miterlimit:4;stroke-opacity:1;stroke-dasharray:none" /><path
     d="m 31.399903,95.013218 c -7.64019,2.48245 -13.54383,1.60541 -16.26136,-0.56305 0.92395,-3.35166 5.18458,-7.53126 12.82476,-10.0137 7.64018,-2.48246 20.2739,-4.58794 32.93695,-6.74121 l 0.55429,1.70593 0.55429,1.70593 c -11.5103,5.70112 -22.96877,11.42367 -30.60893,13.9061 z"
     id="path4064"
     style="fill:url(#linearGradient4110);fill-opacity:1;stroke:#808080;stroke-width:0.99999994;stroke-miterlimit:4;stroke-opacity:1;stroke-dasharray:none" /><path
     d="m 54.196583,112.00458 c -4.17833,5.75097 -8.86083,8.19374 -11.93414,8.05481 -1.08183,-2.87997 -0.20561,-8.08815 3.97272,-13.83913 4.17833,-5.75098 12.12753,-13.829342 20.07288,-21.957172 l 1.2841,0.93295 1.2841,0.93296 c -5.27479,10.06812 -10.50133,20.124622 -14.67966,25.875582 z"
     id="path4066"
     style="fill:url(#linearGradient4112);fill-opacity:1;stroke:#808080;stroke-width:0.99999994;stroke-miterlimit:4;stroke-opacity:1;stroke-dasharray:none" /><path
     d="m 43.779733,103.76484 c -5.75097,4.17833 -10.95915,5.05456 -13.83912,3.97273 -0.13892,-3.07334 2.30383,-7.755812 8.05481,-11.934152 5.75098,-4.17835 15.80747,-9.40488 25.87558,-14.67966 l 0.93296,1.28409 0.93295,1.28411 c -8.12785,7.94535 -16.20621,15.89458 -21.95718,20.072882 z"
     id="path4068"
     style="fill:url(#linearGradient4114);fill-opacity:1;stroke:#808080;stroke-width:0.99999994;stroke-miterlimit:4;stroke-opacity:1;stroke-dasharray:none" /><path
     d="m 27.963303,65.563542 c -7.64018,-2.48245 -11.90082,-6.662058 -12.82476,-10.013705 2.71755,-2.168467 8.62118,-3.045505 16.26136,-0.563059 7.64018,2.482442 19.09865,8.204984 30.60893,13.906106 l -0.55429,1.705935 -0.55429,1.705924 C 48.237193,70.15146 35.603463,68.045982 27.963303,65.563542 z"
     id="path4070"
     style="fill:url(#linearGradient4116);fill-opacity:1;stroke:#808080;stroke-width:0.99999994;stroke-miterlimit:4;stroke-opacity:1;stroke-dasharray:none" /><path
     d="m 54.986773,31.399901 c -2.48244,-7.640184 -1.6054,-13.543819 0.56306,-16.261355 3.35166,0.923952 7.53126,5.184576 10.01371,12.824755 2.48245,7.640181 4.58793,20.273902 6.7412,32.936951 l -1.70593,0.554292 -1.70593,0.554289 C 63.191763,50.49853 57.469213,39.040062 54.986773,31.399901 z"
     id="path4072"
     style="fill:url(#linearGradient4118);fill-opacity:1;stroke:#808080;stroke-width:0.99999994;stroke-miterlimit:4;stroke-opacity:1;stroke-dasharray:none" /><path
     d="m 37.995413,54.196588 c -5.75096,-4.178328 -8.19373,-8.860834 -8.0548,-11.934144 2.87998,-1.081831 8.08814,-0.205608 13.83913,3.972718 5.75098,4.178331 13.82934,12.127534 21.95717,20.07288 l -0.93295,1.284097 -0.93296,1.284108 C 53.802883,63.60145 43.746373,58.374913 37.995413,54.196588 z"
     id="path4074"
     style="fill:url(#linearGradient4120);fill-opacity:1;stroke:#808080;stroke-width:0.99999994;stroke-miterlimit:4;stroke-opacity:1;stroke-dasharray:none" /><path
     d="m 46.235163,43.779736 c -4.17833,-5.750973 -5.05456,-10.959157 -3.97273,-13.839119 3.07333,-0.138919 7.75582,2.303829 11.93416,8.054807 4.17833,5.750979 9.40487,15.80747 14.67965,25.875582 l -1.2841,0.932955 -1.2841,0.932953 C 58.362693,57.609068 50.413473,49.530702 46.235163,43.779736 z"
     id="path4076"
     style="fill:url(#linearGradient4122);fill-opacity:1;stroke:#808080;stroke-width:0.99999994;stroke-miterlimit:4;stroke-opacity:1;stroke-dasharray:none" /><path
     d="m 131.40058,68.418398 c 9.50851,0 15.83343,3.146595 18.09942,6.581598 -2.26599,3.435002 -8.59091,6.581612 -18.09942,6.581612 -9.50852,0 -24.50035,-2.25079 -39.542707,-4.45851 l 0,-2.123102 0,-2.1231 c 15.042357,-2.207707 30.034187,-4.458498 39.542707,-4.458498 z"
     id="path4078"
     style="fill:url(#linearGradient4124);fill-opacity:1;stroke:#808080;stroke-width:0.99999994;stroke-miterlimit:4;stroke-opacity:1;stroke-dasharray:none" /><path
     d="m 68.418391,131.40059 c 0,9.5085 3.146602,15.83342 6.581606,18.09941 3.435006,-2.26599 6.581606,-8.59091 6.581606,-18.09941 0,-9.50851 -2.25079,-24.50036 -4.458508,-39.542722 l -2.123098,0 -2.123099,0 c -2.207713,15.042362 -4.458507,30.034212 -4.458507,39.542722 z"
     id="path4080"
     style="fill:url(#linearGradient4126);fill-opacity:1;stroke:#808080;stroke-width:0.99999994;stroke-miterlimit:4;stroke-opacity:1;stroke-dasharray:none" /><path
     d="m 68.418391,18.599414 c 0,-9.508512 3.146602,-15.833426 6.581606,-18.099414 3.435006,2.265988 6.581606,8.590902 6.581606,18.099414 0,9.508514 -2.25079,24.500349 -4.458508,39.542709 l -2.123098,0 -2.123099,0 C 70.669185,43.099763 68.418391,28.107928 68.418391,18.599414 z"
     id="path4082"
     style="fill:url(#linearGradient4128);fill-opacity:1;stroke:#808080;stroke-width:0.99999994;stroke-miterlimit:4;stroke-opacity:1;stroke-dasharray:none" /><path
     d="m 84.436453,122.0367 c 2.48245,7.64019 6.66205,11.90082 10.01371,12.82475 2.16846,-2.71754 3.0455,-8.62116 0.56306,-16.26135 -2.48245,-7.64018 -8.20499,-19.098652 -13.90611,-30.608932 l -1.70593,0.55428 -1.70593,0.5543 c 2.15328,12.663062 4.25876,25.296782 6.7412,32.936952 z"
     id="path4084"
     style="fill:url(#linearGradient4130);fill-opacity:1;stroke:#808080;stroke-width:0.99999994;stroke-miterlimit:4;stroke-opacity:1;stroke-dasharray:none" /><path
     d="m 118.60009,95.013218 c 7.64019,2.48245 13.54383,1.60541 16.26136,-0.56305 -0.92395,-3.35166 -5.18458,-7.53126 -12.82476,-10.0137 -7.64018,-2.48246 -20.2739,-4.58794 -32.936947,-6.74121 l -0.55429,1.70593 -0.55429,1.70593 c 11.5103,5.70112 22.968767,11.42367 30.608927,13.9061 z"
     id="path4086"
     style="fill:url(#linearGradient4132);fill-opacity:1;stroke:#808080;stroke-width:0.99999994;stroke-miterlimit:4;stroke-opacity:1;stroke-dasharray:none" /><path
     d="m 95.803413,112.00458 c 4.17833,5.75097 8.860827,8.19374 11.934137,8.05481 1.08183,-2.87997 0.20561,-8.08815 -3.97272,-13.83913 C 99.586503,100.46928 91.637303,92.390918 83.691953,84.263088 l -1.2841,0.93295 -1.2841,0.93296 c 5.27479,10.06812 10.50133,20.124622 14.67966,25.875582 z"
     id="path4088"
     style="fill:url(#linearGradient4134);fill-opacity:1;stroke:#808080;stroke-width:0.99999994;stroke-miterlimit:4;stroke-opacity:1;stroke-dasharray:none" /><path
     d="m 106.22026,103.76484 c 5.75097,4.17833 10.95915,5.05456 13.83912,3.97273 0.13892,-3.07334 -2.30383,-7.755812 -8.05481,-11.934152 -5.75098,-4.17835 -15.807467,-9.40488 -25.875577,-14.67966 l -0.93296,1.28409 -0.93295,1.28411 c 8.12785,7.94535 16.206207,15.89458 21.957177,20.072882 z"
     id="path4090"
     style="fill:url(#linearGradient4136);fill-opacity:1;stroke:#808080;stroke-width:0.99999994;stroke-miterlimit:4;stroke-opacity:1;stroke-dasharray:none" /><g
     transform="translate(-22.6001,-24.0137)"
     id="g4092"
     style="stroke:#808080;stroke-opacity:1"><path
       d="m 144.6368,89.577274 c 7.64018,-2.48245 11.90082,-6.662058 12.82476,-10.013705 -2.71755,-2.168467 -8.62118,-3.045505 -16.26136,-0.563059 -7.64018,2.482442 -19.09865,8.204984 -30.60893,13.906106 l 0.55429,1.705935 0.55429,1.705924 c 12.66306,-2.153283 25.29679,-4.258761 32.93695,-6.741201 z"
       id="path4094"
       style="fill:url(#linearGradient4138);fill-opacity:1;stroke:#808080;stroke-width:0.99999994;stroke-miterlimit:4;stroke-opacity:1;stroke-dasharray:none" /><path
       d="m 117.61333,55.413633 c 2.48244,-7.640184 1.6054,-13.543819 -0.56306,-16.261355 -3.35166,0.923952 -7.53126,5.184576 -10.01371,12.824755 -2.48245,7.640181 -4.58793,20.273902 -6.7412,32.936951 l 1.70593,0.554292 1.70593,0.554289 c 5.70112,-11.510303 11.42367,-22.968771 13.90611,-30.608932 z"
       id="path4096"
       style="fill:url(#linearGradient4140);fill-opacity:1;stroke:#808080;stroke-width:0.99999994;stroke-miterlimit:4;stroke-opacity:1;stroke-dasharray:none" /><path
       d="m 134.60469,78.21032 c 5.75096,-4.178328 8.19373,-8.860834 8.0548,-11.934144 -2.87998,-1.081831 -8.08814,-0.205608 -13.83913,3.972718 -5.75098,4.178331 -13.82934,12.127534 -21.95717,20.07288 l 0.93295,1.284097 0.93296,1.284108 c 10.06812,-5.274797 20.12463,-10.501334 25.87559,-14.679659 z"
       id="path4098"
       style="fill:url(#linearGradient4142);fill-opacity:1;stroke:#808080;stroke-width:0.99999994;stroke-miterlimit:4;stroke-opacity:1;stroke-dasharray:none" /><path
       d="m 126.36494,67.793468 c 4.17833,-5.750973 5.05456,-10.959157 3.97273,-13.839119 -3.07333,-0.138919 -7.75582,2.303829 -11.93416,8.054807 -4.17833,5.750979 -9.40487,15.80747 -14.67965,25.875582 l 1.2841,0.932955 1.2841,0.932953 c 7.94535,-8.127846 15.89457,-16.206212 20.07288,-21.957178 z"
       id="path4100"
       style="fill:url(#linearGradient4144);fill-opacity:1;stroke:#808080;stroke-width:0.99999994;stroke-miterlimit:4;stroke-opacity:1;stroke-dasharray:none" /></g><path
     d="m 124.61858,95.497902 a 11.002102,11.002102 0 1 1 -22.0042,0 11.002102,11.002102 0 1 1 22.0042,0 z"
     transform="matrix(0,-1.74288,1.74288,0,-91.4417,273.02)"
     id="path4102"
     style="fill:url(#radialGradient4146);fill-opacity:1;stroke:#808080;stroke-width:0.57376182;stroke-miterlimit:4;stroke-opacity:1;stroke-dasharray:none" /><path
     d="m 124.61858,95.497902 a 11.002102,11.002102 0 1 1 -22.0042,0 11.002102,11.002102 0 1 1 22.0042,0 z"
     transform="matrix(1.15452,0,0,1.15452,-56.1727,-35.2544)"
     id="path4104"
     style="fill:url(#linearGradient4148);fill-opacity:1;stroke:#808080;stroke-width:0.86615962;stroke-miterlimit:4;stroke-opacity:1;stroke-dasharray:none" /></g><g
   id="g3980"><g
     id="g6845"><path
       d="M 3.27566,7.14099 C 3.286861,7.100958 3.314807,7.07849 3.3508,7.090753 c 0.045821,0.015628 0.074343,0.00203 0.090137,-0.0398 0.021283,0.00267 0.042578,0.00535 0.063839,0.008 C 3.506866,7.026436 3.453964,7.008307 3.424911,6.989591 3.436643,6.947622 3.442,6.916754 3.38956,6.897496 3.417805,6.810182 3.362322,6.821073 3.415359,6.7380531 3.426726,6.7238091 3.485418,6.7167811 3.447655,6.6897421 3.460449,6.6401141 3.399432,6.6533841 3.36831,6.6458361 3.37503,6.5407471 3.288832,6.4688941 3.43392,6.4385691 3.444058,6.4049781 3.469558,6.4317191 3.491041,6.4390451 3.496131,6.4253321 3.501257,6.4116191 3.506348,6.3979061 3.459819,6.3962161 3.492402,6.3731031 3.435669,6.3773751 3.362101,6.3590021 3.394497,6.3562471 3.354254,6.2998011 3.331155,6.2674281 3.350024,6.2506271 3.326496,6.2354751 3.342367,6.1918901 3.355062,6.1502421 3.350535,6.1023181 3.347595,6.0713951 3.323729,6.0712841 3.334974,6.0276651 3.378803,6.0425961 3.350679,6.0124691 3.355106,5.9965981 3.368897,5.9472911 3.420273,5.9711201 3.364316,5.8978621 3.34114,5.8876581 3.389794,5.8445591 3.335706,5.7792811 3.34684,5.7394371 3.372274,5.7183191 3.37627,5.6751221 c 0.018738,0.00146 0.067137,-0.00871 0.073313,-0.024582 0.043618,0.04778 0.015362,3.32e-5 0.066175,0.017354 0.030304,0.010326 0.012562,0.085908 0.075837,0.097474 0.035251,0.04799 0.018893,0.159421 0.047348,0.17205 -0.00207,0.032285 -0.00859,0.095283 0.035605,0.086063 -0.00412,-0.011289 0.020697,-0.040187 0.0022,-0.04374 -2.545e-4,-0.012706 -5.423e-4,-0.025423 -8.079e-4,-0.038129 0.024869,-0.022246 0.072837,-0.072096 0.111907,-0.058781 0.040696,0.013879 0.046086,0.19392 0.039246,0.228285 0.083983,0.039103 0.100418,0.045965 0.073446,0.092461 -0.010481,0.03752 0.030658,0.067835 0.023785,0.092383 -0.00717,0.025655 -0.014333,0.051299 -0.021516,0.076955 0.032882,0.00798 0.082798,-0.00142 0.070668,0.059479 0.026153,0.016856 0.024847,0.014222 0.05587,0.034211 -0.00433,0.021704 -4.759e-4,0.042611 -0.00568,0.061272 -0.00673,0.024084 -0.065322,0.024161 -0.020431,0.073103 -0.02104,0.075239 -0.019778,0.048056 0.031333,0.065455 0.024128,0.00822 0.019335,0.106141 0.035849,0.117563 -0.021704,0.041051 -0.033812,0.070878 -0.036845,0.118083 0.098791,0.033679 0.086252,0.03659 0.057852,0.120861 -0.015528,0.055494 -0.048278,0.072804 -0.082422,0.086218 -0.010027,0.018882 -0.020055,0.037752 -0.030071,0.056634 -0.034211,-0.011665 -0.066927,-0.018926 -0.092527,-0.010459 0.00739,0.027304 0.024028,0.050314 0.058958,0.062223 0.019479,-0.034266 0.039058,0.00488 0.061415,0.012496 0.040276,-0.013746 0.026175,-0.016635 0.031898,0.036159 -0.047503,3.984e-4 -0.00129,0.018517 -0.00728,0.039667 -0.010791,0.038605 -0.027625,0.038173 0.026983,0.04395 -0.00221,0.028787 -0.046385,0.048145 -0.0066,0.086351 0.01741,0.032617 -0.052617,0.106229 -0.094309,0.093114 -0.019524,0.069838 -0.088731,0.07214 -0.151596,0.067049 -0.0028,0.04094 -0.0056,0.08188 -0.00841,0.122842 0.027802,0.00946 0.031665,0.031599 0.03804,0.055107 0.035661,0.012141 0.00726,0.055948 -5.866e-4,0.084071 -0.013237,-0.00273 -0.112726,0.078493 -0.112626,0.087746 -0.017177,0.00228 -0.045909,-0.012385 -0.050536,0.00413 -0.00373,0.013315 0.05255,0.074343 0.062976,0.088886 -0.019435,0.064337 -0.088034,0.072483 -0.106307,0.107037 -0.143174,-0.0484 -0.108885,0.023453 -0.127092,0.017022 -0.036314,-0.015628 -0.072616,-0.031267 -0.10893,-0.046894 -0.017133,0.056833 -0.07535,-0.053092 -0.103274,-0.062633 -0.030027,0.020232 0.00952,0.042921 0.00511,0.058671 -0.00745,0.026607 -0.00818,0.043154 -0.04187,0.040508 -0.018472,0.066097 0.067403,-0.00357 0.05224,0.072594 0.047813,0.021228 0.024914,0.107192 -0.0198,0.117087 -0.039269,0.00868 -0.02011,-0.019933 -0.049728,0.035804 -0.030138,-0.00592 -0.060287,-0.011865 -0.090435,-0.017786 -0.016059,0.041383 0.00135,0.056114 0.029839,0.073468 -0.037066,0.040309 -0.031953,0.06385 -0.016015,0.095582 -0.010238,0.03659 -0.078493,0.03379 -0.10759,0.043397 -0.0284,-0.038638 -0.054244,-0.039623 -0.097873,-0.045998 -0.014034,-0.051775 -0.01876,-0.090679 -0.072605,-0.109029 5.645e-4,-0.016248 -0.04021,-0.144336 -0.053801,-0.148973 -0.029031,-0.00987 -0.053469,-0.016712 -0.08074,0.00199 0.013281,0.017166 0.0767,0.026076 0.061637,0.079987 -0.00502,0.017974 -0.037088,0.01264 -0.055262,0.00645 -0.00494,0.017664 -0.00739,0.045932 0.015838,0.053225 0.01938,0.00331 0.038771,0.00661 0.058139,0.00992 0.016901,0.02301 0.010636,0.061548 0.019767,0.072207 0.020088,0.02353 -0.00469,0.047105 0.038339,0.061371 -0.00207,0.035439 -0.031875,0.046031 -0.040951,0.077796 -0.019081,-0.015196 -0.040198,-3.431e-4 -0.051355,-0.020752 -0.013934,-0.00476 -0.033812,0.02529 -0.03731,0.037841 -0.039258,-0.01337 -0.065909,-0.039324 -0.100286,-0.051034 -0.011057,0.019457 -0.019778,0.018539 -0.037819,0.012396 -0.048654,-0.016591 -0.064182,-0.065898 -0.126284,-0.080961 0.00141,-0.040309 -0.055018,-0.136754 -0.098869,-0.151696 -0.036646,-0.012496 -0.094564,0.017609 -0.120783,0.045046 -0.098692,-0.053314 0.033989,-0.053347 -0.064714,0 -0.026209,-0.027426 -0.084138,-0.057542 -0.120794,-0.045046 -0.04384,0.014942 -0.100264,0.111387 -0.098858,0.151685 -0.062102,0.015074 -0.077619,0.064382 -0.126273,0.080961 -0.018052,0.00615 -0.026773,0.00707 -0.03783,-0.012385 -0.034377,0.01171 -0.061028,0.037653 -0.100286,0.051034 -0.00351,-0.012551 -0.023364,-0.0426 -0.03731,-0.037852 -0.011167,0.02042 -0.032274,0.00557 -0.051355,0.020763 -0.00908,-0.031765 -0.038881,-0.042357 -0.040951,-0.077785 0.043043,-0.014278 0.018251,-0.037852 0.03835,-0.061382 0.00912,-0.010669 0.00284,-0.049196 0.019745,-0.072207 0.01938,-0.00331 0.038771,-0.00662 0.05815,-0.00993 0.023231,-0.00729 0.020774,-0.03555 0.015838,-0.053214 -0.018173,0.0062 -0.050237,0.011522 -0.055262,-0.00645 -0.015074,-0.0539 0.048355,-0.062821 0.061637,-0.079998 -0.027282,-0.018694 -0.05172,-0.011854 -0.08074,-0.00198 -0.013591,0.00464 -0.054365,0.132737 -0.053801,0.148973 -0.053856,0.018351 -0.058571,0.057254 -0.072605,0.109029 -0.043629,0.00638 -0.069473,0.00736 -0.097873,0.045998 -0.029097,-0.00961 -0.097364,-0.00681 -0.10759,-0.043397 0.015938,-0.031743 0.021051,-0.055273 -0.016015,-0.095582 0.028489,-0.017343 0.045909,-0.032086 0.029839,-0.073468 -0.030149,0.00593 -0.060298,0.011865 -0.090435,0.017797 -0.029618,-0.05576 -0.010459,-0.027138 -0.049728,-0.035816 -0.044714,-0.00989 -0.067613,-0.095859 -0.0198,-0.117087 -0.015163,-0.076169 0.070712,-0.0065 0.05224,-0.072594 -0.033691,0.00263 -0.034421,-0.013901 -0.04187,-0.040508 -0.0044,-0.01575 0.035129,-0.038439 0.00511,-0.058659 -0.027935,0.00952 -0.086141,0.119455 -0.103285,0.062622 -0.036302,0.015628 -0.072605,0.031267 -0.10890796,0.046894 -0.0182066,0.00642 0.0160594,-0.065433 -0.127103,-0.017011 -0.018273,-0.034565 -0.0868825,-0.042711 -0.106307,-0.107048 0.010437,-0.014543 0.0666948,-0.075571 0.062976,-0.088886 -0.004615,-0.016502 -0.0333695,-0.00184 -0.0505357,-0.00413 9.961e-5,-0.00926 -0.0993892,-0.090491 -0.112626,-0.087746 -0.007858,-0.028134 -0.0362472,-0.07193 -5.9766e-4,-0.084082 0.006375,-0.023486 0.0102488,-0.045622 0.0380512,-0.055107 -0.0028,-0.04094 -0.005611,-0.081891 -0.008412,-0.122831 -0.0628542,0.00509 -0.132061,0.00278 -0.151596,-0.067038 -0.0416925,0.013093 -0.111719,-0.060508 -0.094309,-0.093125 0.0397889,-0.038206 -0.004394,-0.057564 -0.006585,-0.086351 0.0545976,-0.00578 0.0377635,-0.00535 0.0269723,-0.04395 -0.005988,-0.021162 0.0402316,-0.039269 -0.007272,-0.039656 0.005711,-0.052794 -0.008389,-0.049905 0.0318864,-0.036159 0.022357,-0.00761 0.041936,-0.046762 0.0614154,-0.012507 0.0349301,-0.011909 0.0515651,-0.034919 0.0589584,-0.062234 -0.025611,-0.00846 -0.0583164,-0.00118 -0.0925271,0.01047 -0.0100164,-0.018871 -0.0200439,-0.037752 -0.0300602,-0.056623 -0.0341664,-0.013425 -0.0669161,-0.030724 -0.0824332,-0.086229 -0.028389,-0.08427 -0.0409399,-0.087181 0.0578516,-0.120861 -0.003033,-0.047204 -0.0151519,-0.077032 -0.0368448,-0.118072 0.0165132,-0.011433 0.0117208,-0.109339 0.0358598,-0.117574 0.0511002,-0.01741 0.0523619,0.00977 0.031333,-0.065455 0.0448801,-0.048942 -0.013713,-0.049008 -0.0204423,-0.073103 -0.005213,-0.018649 -0.00135,-0.039556 -0.005678,-0.061272 0.0310342,-0.019989 0.0297171,-0.017354 0.0558704,-0.0342 -0.0121193,-0.060906 0.0377745,-0.05151 0.0706571,-0.05949 -0.007161,-0.025655 -0.0143328,-0.051299 -0.0215048,-0.076944 -0.006873,-0.02456 0.0342771,-0.054874 0.0237958,-0.092405 -0.0269834,-0.046485 -0.0105476,-0.053347 0.073424,-0.092439 -0.00684,-0.034377 -0.001439,-0.214417 0.0392576,-0.228296 0.0390695,-0.013315 0.0870375,0.036546 0.111896,0.058781 -2.6563e-4,0.012706 -5.3126e-4,0.025423 -7.9688e-4,0.03814 -0.0184944,0.00354 0.006331,0.032451 0.002202,0.043729 0.0441939,0.00922 0.0376638,-0.05379 0.0356052,-0.086052 0.0284554,-0.012639 0.0121082,-0.124082 0.0473482,-0.172061 0.0632748,-0.011566 0.045522,-0.087148 0.0758368,-0.097486 0.0508235,-0.01731 0.0225452,0.030437 0.0661746,-0.017343 0.00618,0.015882 0.054576,0.026043 0.073313,0.024582 0.004,0.043198 0.029429,0.064304 0.040575,0.104159 -0.054111,0.065267 -0.00546,0.108376 -0.02861,0.11857 -0.05597,0.073269 -0.00459,0.04944 0.0092,0.098747 0.00443,0.015882 -0.023696,0.045998 0.020144,0.031067 0.011234,0.043618 -0.012639,0.043729 -0.015572,0.074653 -0.00453,0.047924 0.00816,0.089583 0.024039,0.133157 -0.02353,0.015152 -0.00467,0.031953 -0.027758,0.064326 -0.040243,0.056446 -0.00785,0.059202 -0.081415,0.077563 -0.0567227,-0.00425 -0.024139,0.018848 -0.0706903,0.020542 0.005113,0.013713 0.0102156,0.027426 0.0153179,0.041139 0.0214716,-0.00733 0.0469719,-0.034078 0.0571211,-4.759e-4 0.145088,0.030326 0.058903,0.102178 0.065621,0.207256 -0.031134,0.00756 -0.092151,-0.00571 -0.079368,0.043906 -0.0377635,0.02705 0.020929,0.034078 0.032307,0.048322 0.053037,0.08302 -0.00243,0.07214 0.025788,0.159443 -0.052417,0.019269 -0.047071,0.050126 -0.03534,0.092096 -0.029053,0.018727 -0.0819573,0.036845 -0.0798766,0.069373 0.0212835,-0.00268 0.0425669,-0.00535 0.0638504,-0.00801 0.015794,0.041825 0.044316,0.055428 0.090137,0.039811 0.035993,-0.012274 0.063939,0.010182 0.07514,0.050237 0.011577,0.041383 -0.026209,0.030182 0.016214,0.099998 0.017864,-0.012374 0.038107,-0.017377 0.058416,-0.024305 0.017111,0.032385 0.031665,0.065234 0.062013,0.071576 -0.00174,0.027094 -0.00346,0.054199 -0.00519,0.081304 0.054897,-0.00331 0.013237,0.056712 0.020332,0.08209 0.00666,0.019324 0.013326,0.038649 0.019988,0.057962 0.09784,0.021837 0.024659,0.052373 0.026264,0.107469 0.00537,0.019181 0.029374,0.018173 0.035329,0.039479 0.00149,0.00533 -0.047337,0.087004 -0.046474,0.111807 0.013326,0.0067 0.026651,0.013392 0.039977,0.020088 -0.00165,-0.025832 -0.010758,-0.037808 0.013647,-0.046795 -0.01223,-0.043751 0.036635,-0.070159 0.063463,-0.038173 0.063264,-0.02156 0.019966,0.056103 0.07038,0.038914 0.047116,0.01555 0.019834,0.095294 0.07919,0.07836 0.011024,0.011599 0.022058,0.023209 0.033093,0.034808 0.028965,-0.017886 0.069462,-0.018926 0.103064,-0.025235 0.053413,0.066573 0.029319,-0.015418 0.068488,-0.028765 0.051554,-0.017565 0.075372,0.017255 0.115072,0.015561 0.010249,0.036668 0.061415,0.083042 0.062832,0.088144 0.00769,0.027504 0.00162,0.07763 0.00357,0.108343 0.016679,0.012285 -9.076e-4,0.039999 -0.00136,0.059988 0.024869,-0.015904 0.017177,0.029883 0.025766,0.044814 -0.06965,-0.040143 -0.00351,0.09774 0.059999,0.118691 -0.00473,-0.014466 -0.00944,-0.028931 -0.014156,-0.043397 0.015484,0.00248 0.093645,0.079843 0.099478,0.099179 -0.00877,-0.00404 -0.017532,-0.00808 -0.026297,-0.012119 0.018151,0.06022 0.090313,0.060198 0.108498,1.11e-5 -0.00877,0.00403 -0.017543,0.00807 -0.026308,0.012108 0.00584,-0.019324 0.083994,-0.0967 0.099489,-0.099179 -0.00471,0.014477 -0.00943,0.028931 -0.014156,0.043397 0.063518,-0.020951 0.129649,-0.158835 0.06001,-0.118691 0.00858,-0.014942 8.855e-4,-0.060718 0.025755,-0.044814 -4.427e-4,-0.019989 -0.018052,-0.047702 -0.00136,-0.059988 0.00196,-0.030702 -0.00412,-0.080839 0.00357,-0.108343 0.00142,-0.0051 0.052572,-0.051488 0.062821,-0.088144 0.039711,0.00169 0.063529,-0.033126 0.115094,-0.01555 0.039169,0.013337 0.015063,0.095327 0.068477,0.028743 0.033602,0.00632 0.074099,0.00736 0.103075,0.025246 0.011024,-0.01161 0.022058,-0.023209 0.033082,-0.034808 0.059357,0.016934 0.032063,-0.06281 0.07919,-0.07836 0.050414,0.017177 0.00711,-0.060475 0.07038,-0.038926 0.026817,-0.031964 0.075693,-0.00557 0.063474,0.038195 0.024394,0.00897 0.015285,0.02094 0.013636,0.046784 0.013326,-0.0067 0.026651,-0.013392 0.039977,-0.020088 8.633e-4,-0.024803 -0.047968,-0.106462 -0.046474,-0.111818 0.00595,-0.021294 0.029961,-0.020287 0.035317,-0.039457 0.0016,-0.055107 -0.071565,-0.085643 0.026264,-0.10748 0.00667,-0.019324 0.013348,-0.038638 0.02,-0.057962 0.00711,-0.025378 -0.034565,-0.085399 0.020343,-0.08209 -0.00173,-0.027116 -0.00348,-0.054199 -0.0052,-0.081304 0.030337,-0.00634 0.044891,-0.039191 0.062013,-0.071565 0.020309,0.00692 0.040553,0.01192 0.058416,0.024294 0.042434,-0.069805 0.00464,-0.058615 0.016214,-0.100009 z"
       id="path329"
       style="fill:#e6dccd;stroke:#a7a39c;stroke-width:0.0312359;stroke-miterlimit:4;stroke-opacity:1;stroke-dasharray:none" /><path
       d="M 3.44992,7.63969 3.44563,7.655085 3.415758,7.702411 3.381724,7.747081 3.378494,7.758625 3.294478,7.826914 3.388743,7.694687 3.425201,7.617301 l 0.023143,7.858e-4 0.00158,0.021604 z m -2.42323,1.11e-5 0.00431,0.015384 0.02985,0.047326 0.034056,0.04467 0.00322,0.011544 0.084005,0.068289 -0.094243,-0.132227 -0.036469,-0.077386 -0.023132,7.858e-4 -0.00159,0.021616 z m 0.753045,0.567326 0.138027,0.063175 0.069074,0.064448 0.043342,-0.157794 -0.043552,-0.128431 -0.057708,-0.056191 -0.037586,-0.079932 -0.061736,-0.029485 -0.082079,0.00691 0.044592,0.077508 0.03555,0.137551 0.09981,0.067226 -0.074785,-0.00321 -0.00497,-0.00712 -0.076291,0.0029 0.00831,0.042445 z m 0.115272,0.011666 -0.00567,0.00261 -0.00622,-0.00892 0.011887,0.00631 z m -0.453848,-0.165176 -0.116655,-0.076556 -0.071841,-0.00379 -0.061061,-0.00322 0.030425,0.059777 -0.108011,-0.00498 -0.10624,-0.0767 0.048809,0.100352 -0.125443,-0.019479 -0.0697274,0.023763 -0.0592572,0.020199 0.0914867,0.064846 0.0598881,0.00289 0.153367,-0.015694 0.120462,-0.056324 0.011145,-0.014654 0.027913,0.028599 0.056988,0.029363 0.150611,0.04934 0.127225,-0.01057 0.028367,-0.023995 0.11173,0.102521 0.00139,-0.079323 -0.021383,-0.107967 -0.031067,-0.092162 -0.013857,-0.082146 -0.041062,-0.02394 -0.043508,-0.073667 -0.077807,-0.032473 0.018328,0.120175 0.070701,0.156986 -0.037874,-0.012263 0.055561,0.048488 0.019878,0.043795 -0.016613,0.022512 0.00153,0.00335 -0.124402,-0.06851 -0.086595,-0.132316 0.026596,0.133766 z m -0.909466,-0.811306 -0.0536237,0.026707 0.130866,0.126129 -0.0344652,0.01379 0.137374,0.05431 -0.0257327,0.017199 0.0999868,0.047083 0.102223,0.04322 L 0.8379515,7.4499321 0.8260646,7.4073541 0.8027336,7.4195181 0.7581524,7.3420101 0.717622,7.2926251 0.6908046,7.3059731 0.5850626,7.2282331 0.5786546,7.2599201 0.5316938,7.2422121 z m 0.483222,-0.893706 0.026032,0.024836 0.050691,0.00379 -8.08e-4,-0.016569 0.043939,-0.061338 0.00453,-0.052107 -0.026552,6.198e-4 -0.020918,0.00714 -0.07691,0.093634 z m 0.887629,1.52209 0.116799,0.158248 0.021383,-0.087358 -0.046075,-0.00977 -0.011112,-0.071864 -0.069761,-0.031012 -0.011234,0.041759 z m -0.745131,-0.357048 0.031709,0.086108 0.00457,0.060696 0.00735,0.018129 0.020874,0.011134 0.032285,-0.225917 -0.101957,-0.036878 0.00517,0.086728 z M 1.168935,7.3706501 1.154248,7.3081831 1.217833,7.2653951 1.211863,7.1633721 1.1853,7.162708 1.127415,7.228794 1.092297,7.253398 1.111146,7.348116 1.079293,7.439038 1.100045,7.411247 1.168931,7.37065 z m -0.156278,-0.798046 -0.014189,0.017487 0.0131597,0.033436 -0.0468723,0.091819 0.0311228,0.00204 0.0209182,-0.00713 0.026054,-0.043928 0.072063,-0.014798 0.016414,-0.06457 -0.00926,-0.060076 -0.04291,0.010415 -0.011831,-0.042312 -0.054664,0.077619 z m -0.35489,0.314802 -0.0206637,-0.089771 -0.101769,-0.074973 -0.0273708,-0.01596 -0.04291,0.010415 0.0762463,0.145442 0.0493072,0.049352 0.0441275,0.029706 0.0230322,-0.05421 z m 0.839783,1.53639 -0.058582,0.055693 -0.033524,0.00301 -0.023552,0.079655 0.066794,0.00673 0.094652,-0.057542 0.057896,-0.084901 0.044659,-0.13547 -0.090723,0.075925 -0.041261,0.03576 -0.016358,0.02114 z m -0.79643,-2.02312 -0.074066,-0.046396 0.004051,0.028123 0.0590469,0.047293 0.006707,0.010348 0.0104591,-0.00356 0.0123738,-0.01244 0.0369887,0.025113 0.0278909,-0.00951 -0.022678,-0.190323 -0.0550404,-0.073944 -0.0638393,0.014156 0.0581061,0.211141 z m 0.104591,-0.376982 -0.0789247,-0.091088 0.005412,0.073989 0.009729,0.089406 -0.004316,0.023043 -0.006098,0.035284 0.0506464,0.155437 0.0627657,-0.227798 -0.0340889,-0.026308 -0.005124,-0.031964 z m 0.0124624,0.52249 0.0193023,0.105665 -0.0291527,-0.018018 -0.003962,0.081415 0.003221,0.011533 0.0943865,-0.044814 0.0174318,-0.00593 -0.008865,-0.018052 0.0777294,-0.077065 0.0138569,-0.114275 -0.0288871,-0.074365 -0.105952,0.17931 -0.0139455,0.00476 -0.0133257,-0.05431 -0.0218368,0.02415 z m 0.938995,1.89733 -0.083518,0.014986 -0.026773,0.068122 0.109228,0.014167 -0.00241,0.067425 0.053823,-0.08271 -0.077032,-0.032805 0.074121,0.00706 0.119046,-0.021117 0.060486,-0.029717 0.046507,-0.010968 0.02861,-0.047957 -0.073413,-0.010039 -0.037376,0.039911 -0.049971,-0.048588 -0.035782,0.025069 -0.057652,-0.034012 0.00443,0.057863 0.070956,0.026806 0.036756,0.00854 -0.067049,0.006 -0.084536,-0.055981 -0.00844,0.03794 z m -1.03363,-0.761013 0.0937556,0.078393 0.104292,0.056369 -0.005335,0.035528 0.0847907,0.030105 -0.005102,0.024382 0.114253,0.00113 0.00205,-0.0066 -0.03835,-0.043032 L 1.0452377,7.8088271 0.9957313,7.7917711 0.9628266,7.7189341 0.9008578,7.7021221 0.8324254,7.6622451 0.7608165,7.6655751 0.72354,7.6824981 z m -0.317027,-0.696809 0.0621902,0.034609 0.0581172,0.043165 0.129151,0.069993 -0.004162,0.04675 0.125332,0.079478 -0.007017,-0.052384 -0.0937335,-0.157683 -0.0233199,0.012164 -0.0674031,-0.090801 -0.0163472,0.00978 -0.112239,-0.043729 -0.0505689,0.048654 z m 0.572805,0.546419 0.0277471,-0.106185 0.03866,-0.112748 0.036634,-0.08167 -0.022335,-0.093523 -0.03161,-0.032683 -0.023132,7.747e-4 -0.0522513,0.143439 0.004759,0.06074 -0.0211617,0.221445 0.007869,0.06706 0.0348194,-0.06665 z m 0.116533,-1.4872 -0.065013,0.087458 -0.027371,-0.015949 -0.0543652,0.119665 -0.0204423,-0.02819 -0.0556823,0.083629 -0.0178856,0.076877 0.0592904,-0.010525 0.0334691,-0.00338 0.0405968,-0.050768 0.0380402,-0.019402 0.040984,-0.072649 0.066396,-0.038571 -0.00861,-0.03078 L 1.123585,6.0643783 1.095849,6.04491 z m 0.282307,2.35323 0.032573,-0.00595 0.04799,-0.033204 0.064636,-9.629e-4 0.105919,-0.098448 -0.016392,0.00894 -0.108387,-0.02477 0.025235,0.027825 -0.169327,0.015827 -0.182022,0.011223 0.074166,0.070558 0.125609,0.028964 z m -0.474954,-1.49326 -0.0590248,0.239408 0.007194,0.039534 0.0335909,-0.012628 0.0704357,-0.052329 0.0104148,-0.058339 0.0806956,-0.052783 -0.010227,-0.040431 0.057154,-0.059069 -0.02322,-0.061039 -0.00476,-0.064669 -0.16225398,0.122344 z m 0.455685,1.02881 0.037188,-0.12645 0.043641,-0.103374 -0.029319,-0.043751 0.014156,-0.100518 -0.03317,-0.016248 -0.016724,-0.044858 -0.018505,0.00209 -0.028334,0.144502 -0.045024,-0.017697 0.035694,0.056313 0.00675,0.088687 -0.05773,-0.033248 0.048643,0.082699 0.019966,0.153323 0.022766,-0.041471 z m -0.624392,-1.01765 0.003409,-0.091409 0.001549,-0.095693 -0.0191031,-0.08198 -0.006497,-0.077862 -0.0263415,-0.066872 -0.069506,-0.043729 -0.00404,-0.028123 -0.0713543,-0.00939 0.0221467,0.063574 0.0632748,0.219165 -0.0243824,8.08e-4 0.0650457,0.09909 0.0657983,0.112416 z m 0.384275,-1.19289 -0.00797,-0.00921 -0.100739,0.108409 0.026851,-0.090978 -0.00392,-0.01472 -0.0472598,-0.00133 -0.0411945,0.269369 -0.011743,-0.02539 -0.0297946,0.10178 -0.042423,0.085278 0.005656,0.061648 0.0639832,-0.121403 0.101049,-0.089229 0.038605,-0.025799 0.059224,-0.074962 -0.016657,-0.032252 0.024626,-0.075815 -0.018295,-0.0654 z m -0.343059,1.31943 0.0225452,0.026021 0.004206,-0.061947 -0.008002,-0.072472 0.0358266,-0.078759 -0.0649018,0.01368 0.0103263,0.173477 z m 1.92116,1.16445 -0.138027,0.063175 -0.069063,0.064459 -0.043353,-0.157805 0.043552,-0.128431 0.057708,-0.05618 0.037597,-0.079932 0.061725,-0.029485 0.082068,0.00691 -0.044581,0.077508 -0.035539,0.137551 -0.099832,0.067215 0.074796,-0.0032 0.00497,-0.00713 0.076291,0.00291 -0.00831,0.042434 z m -0.11526,0.011677 0.00564,0.00259 0.00623,-0.00891 -0.011876,0.00632 z m 0.453848,-0.165176 0.116633,-0.076567 0.071852,-0.0038 0.061061,-0.00322 -0.030437,0.059788 0.108022,-0.00499 0.106229,-0.0767 -0.048787,0.100352 0.125432,-0.019468 0.069727,0.023763 0.059268,0.020199 -0.091487,0.064835 -0.059899,0.00289 -0.153356,-0.015683 -0.120473,-0.056324 -0.011134,-0.014654 -0.027935,0.028588 -0.056966,0.029374 -0.150622,0.04934 -0.127225,-0.010581 -0.028356,-0.023984 -0.111752,0.102532 -0.00138,-0.079334 0.021372,-0.107956 0.03109,-0.092173 0.013846,-0.082146 0.041073,-0.02394 0.043486,-0.073667 0.077829,-0.032462 -0.018339,0.120164 -0.070701,0.156997 0.037863,-0.012274 -0.055549,0.048488 -0.019878,0.043795 0.016613,0.022523 -0.00153,0.00335 0.124402,-0.068521 0.086595,-0.132316 -0.026585,0.133777 z m 0.909444,-0.811317 0.053635,0.026707 -0.130866,0.12614 0.034476,0.01379 -0.137374,0.05431 0.025733,0.017177 -0.099998,0.047083 -0.102223,0.043231 0.050381,-0.120728 0.011876,-0.042567 0.023331,0.012175 0.04457,-0.077508 0.040541,-0.049385 0.026817,0.013337 0.105742,-0.077729 0.0064,0.031676 0.046961,-0.017709 z m -0.4832,-0.893717 -0.026043,0.024847 -0.050691,0.0038 8.08e-4,-0.016591 -0.043939,-0.061327 -0.00453,-0.052107 0.026552,6.198e-4 0.020918,0.00714 0.076922,0.093623 z m -0.887629,1.52209 -0.11681,0.158259 -0.021394,-0.08737 0.046086,-0.00976 0.011101,-0.071874 0.069772,-0.031001 0.011245,0.041748 z m 0.74512,-0.357037 -0.031698,0.086119 -0.00457,0.060685 -0.00736,0.018129 -0.020863,0.011134 -0.032296,-0.225917 0.101957,-0.036878 -0.00517,0.086728 z m -0.011522,-0.142897 0.014698,-0.062467 -0.063596,-0.042777 0.00597,-0.102034 0.026563,-6.752e-4 0.057885,0.066108 0.035107,0.024593 -0.018838,0.094708 0.031853,0.090933 -0.020752,-0.02778 -0.068886,-0.040608 z m 0.156267,-0.798046 0.0142,0.017487 -0.013171,0.033436 0.046883,0.09183 -0.031123,0.00203 -0.020907,-0.00713 -0.026065,-0.043928 -0.072063,-0.014798 -0.016403,-0.064581 0.00924,-0.060065 0.042921,0.010426 0.011831,-0.042334 0.054653,0.07763 z m 0.354912,0.314802 0.020664,-0.089782 0.101769,-0.074974 0.02736,-0.01596 0.042921,0.010426 -0.076257,0.145442 -0.049318,0.049352 -0.044128,0.029695 -0.02301,-0.054199 z m -0.839794,1.53638 0.058571,0.055715 0.033524,0.00299 0.023563,0.079666 -0.066806,0.00674 -0.094641,-0.057553 -0.057907,-0.084901 -0.044659,-0.13547 0.090734,0.075925 0.04125,0.03576 0.016369,0.021128 z m 0.796419,-2.02311 0.074066,-0.046396 -0.00404,0.028123 -0.059047,0.047282 -0.0067,0.01036 -0.01047,-0.00356 -0.012374,-0.01244 -0.036989,0.025113 -0.02788,-0.00952 0.022667,-0.190311 0.055029,-0.073955 0.06385,0.014167 -0.058117,0.211141 z m -0.104591,-0.376993 0.078936,-0.091077 -0.00542,0.073988 -0.00972,0.089417 0.00433,0.023021 0.00609,0.035295 -0.050635,0.155426 -0.062777,-0.227787 0.034089,-0.026308 0.00511,-0.031975 z m -0.012451,0.522502 -0.019302,0.105665 0.029153,-0.018018 0.00396,0.081415 -0.00323,0.011544 -0.094364,-0.044814 -0.017443,-0.00594 0.00885,-0.018041 -0.077707,-0.077076 -0.013868,-0.114286 0.028887,-0.074354 0.105952,0.17931 0.013945,0.00476 0.013326,-0.05431 0.021837,0.02415 z m -0.938995,1.89733 0.083529,0.014986 0.026773,0.068122 -0.109228,0.014167 0.00241,0.067414 -0.053834,-0.082699 0.077032,-0.032794 -0.074121,0.00706 -0.119046,-0.02114 -0.060486,-0.029695 -0.046507,-0.010979 -0.02861,-0.047957 0.073424,-0.010039 0.037365,0.039911 0.049971,-0.048588 0.035782,0.025069 0.057652,-0.034012 -0.00444,0.057874 -0.070945,0.026795 -0.036756,0.00854 0.06706,0.00599 0.084525,-0.05597 0.00844,0.03794 z m 1.03363,-0.761002 -0.093767,0.078382 -0.104281,0.05638 0.00535,0.035517 -0.084791,0.030105 0.00508,0.024371 -0.114253,0.00114 -0.00204,-0.0066 0.03835,-0.043021 0.028655,-0.04996 0.049506,-0.017056 0.032905,-0.072837 0.06198,-0.016801 0.06841,-0.039888 0.07162,0.00333 0.037276,0.016934 z m 0.317027,-0.69682 -0.062201,0.03462 -0.058106,0.043154 -0.129151,0.069993 0.00415,0.04674 -0.125321,0.0795 0.00702,-0.052395 0.093722,-0.157683 0.023342,0.012175 0.067392,-0.090812 0.016358,0.00978 0.112228,-0.043729 0.050569,0.048654 z m -0.572816,0.54643 -0.027736,-0.106207 -0.03866,-0.112737 -0.036624,-0.08167 0.022324,-0.093523 0.03161,-0.032683 0.023143,7.747e-4 0.05224,0.143439 -0.00476,0.060729 0.021162,0.221456 -0.00787,0.06706 -0.03483,-0.066639 z m -0.116522,-1.48721 0.065012,0.087469 0.027382,-0.01596 0.054343,0.119665 0.020442,-0.02819 0.055704,0.08364 0.017875,0.076855 -0.05929,-0.010525 -0.033469,-0.00338 -0.040597,-0.050746 -0.038051,-0.019424 -0.040973,-0.072627 -0.066396,-0.038583 0.0086,-0.03078 0.00168,-0.077951 0.027736,-0.019468 z m -0.282307,2.35324 -0.032573,-0.00595 -0.04799,-0.033215 -0.064647,-9.629e-4 -0.105908,-0.098448 0.016392,0.00894 0.108387,-0.02477 -0.025235,0.027813 0.169316,0.015849 0.182033,0.011212 -0.074155,0.070557 -0.12562,0.028976 z m 0.474965,-1.49327 0.059025,0.239397 -0.00721,0.039534 -0.033602,-0.012617 -0.070436,-0.052329 -0.010415,-0.058339 -0.080685,-0.052794 0.010227,-0.04042 -0.057154,-0.059069 0.023231,-0.061039 0.00476,-0.064669 0.162254,0.122344 z m -0.455696,1.02882 -0.037177,-0.126461 -0.043652,-0.103374 0.02933,-0.043751 -0.014167,-0.100507 0.033181,-0.016259 0.016712,-0.044858 0.018505,0.00209 0.028334,0.144513 0.045024,-0.017697 -0.035694,0.056302 -0.00675,0.088687 0.05773,-0.033237 -0.048632,0.082688 -0.019966,0.153334 -0.022778,-0.041471 z m 0.624403,-1.01768 -0.00342,-0.091398 -0.00155,-0.095704 0.019103,-0.081968 0.0065,-0.077851 0.026342,-0.066883 0.069506,-0.043718 0.00404,-0.028134 0.071354,-0.00939 -0.022147,0.063574 -0.063286,0.219165 0.024405,8.08e-4 -0.065057,0.099079 -0.065787,0.112416 z m -0.384286,-1.19289 0.00797,-0.0092 0.100739,0.108409 -0.026851,-0.090978 0.00392,-0.014709 0.04726,-0.00134 0.041195,0.269369 0.011743,-0.02539 0.029784,0.10178 0.042423,0.085278 -0.00564,0.061648 -0.063983,-0.121403 -0.101049,-0.089229 -0.038616,-0.025788 -0.059213,-0.074985 0.016657,-0.032241 -0.024626,-0.075826 0.018295,-0.0654 z m 0.343059,1.31943 -0.022556,0.026032 -0.00421,-0.061947 0.00801,-0.072472 -0.035827,-0.078759 0.064902,0.01368 -0.010326,0.173466 z"
       id="path335"
       style="fill:#e6dccd;stroke:#a7a39c;stroke-width:0.0312359;stroke-miterlimit:4;stroke-opacity:1;stroke-dasharray:none" /></g><path
     d="m 2.12558,8.17453 0.225474,0 c 0.023242,0 0.042246,0.018871 0.042246,0.041947 l 0,0.24502 c 0,0.023076 -0.019004,0.041947 -0.042246,0.041947 l -0.225474,0 c -0.023231,0 -0.042246,-0.018871 -0.042246,-0.041947 l 0,-0.24502 c 0,-0.023076 0.019014,-0.041947 0.042246,-0.041947 z"
     id="path341"
     style="fill:#e6dccd;stroke:#a7a39c;stroke-width:0.0312359;stroke-miterlimit:4;stroke-opacity:1;stroke-dasharray:none" /><g
     transform="matrix(0.01120375,0,0,0.01120375,1.3985964,5.6602971)"
     id="g4150"
     style="fill-rule:evenodd"><path
       d="m 18.59942,68.418398 c -9.50851,0 -15.83343,3.146595 -18.09942,6.581598 2.26599,3.435002 8.59091,6.581612 18.09942,6.581612 9.50852,0 24.50035,-2.25079 39.54271,-4.45851 l 0,-2.123102 0,-2.1231 C 43.09977,70.669189 28.10794,68.418398 18.59942,68.418398 z"
       id="path4152"
       style="fill:url(#linearGradient4198);fill-opacity:1;stroke:#808080;stroke-width:0.99999994;stroke-miterlimit:4;stroke-opacity:1;stroke-dasharray:none" /><path
       d="m 65.563543,122.0367 c -2.48245,7.64019 -6.66205,11.90082 -10.01371,12.82475 -2.16846,-2.71754 -3.0455,-8.62116 -0.56306,-16.26135 2.48245,-7.64018 8.20499,-19.098652 13.90611,-30.608932 l 1.70593,0.55428 1.70593,0.5543 c -2.15328,12.663062 -4.25876,25.296782 -6.7412,32.936952 z"
       id="path4154"
       style="fill:url(#linearGradient4200);fill-opacity:1;stroke:#808080;stroke-width:0.99999994;stroke-miterlimit:4;stroke-opacity:1;stroke-dasharray:none" /><path
       d="m 31.399903,95.013218 c -7.64019,2.48245 -13.54383,1.60541 -16.26136,-0.56305 0.92395,-3.35166 5.18458,-7.53126 12.82476,-10.0137 7.64018,-2.48246 20.2739,-4.58794 32.93695,-6.74121 l 0.55429,1.70593 0.55429,1.70593 c -11.5103,5.70112 -22.96877,11.42367 -30.60893,13.9061 z"
       id="path4156"
       style="fill:url(#linearGradient4202);fill-opacity:1;stroke:#808080;stroke-width:0.99999994;stroke-miterlimit:4;stroke-opacity:1;stroke-dasharray:none" /><path
       d="m 54.196583,112.00458 c -4.17833,5.75097 -8.86083,8.19374 -11.93414,8.05481 -1.08183,-2.87997 -0.20561,-8.08815 3.97272,-13.83913 4.17833,-5.75098 12.12753,-13.829342 20.07288,-21.957172 l 1.2841,0.93295 1.2841,0.93296 c -5.27479,10.06812 -10.50133,20.124622 -14.67966,25.875582 z"
       id="path4158"
       style="fill:url(#linearGradient4204);fill-opacity:1;stroke:#808080;stroke-width:0.99999994;stroke-miterlimit:4;stroke-opacity:1;stroke-dasharray:none" /><path
       d="m 43.779733,103.76484 c -5.75097,4.17833 -10.95915,5.05456 -13.83912,3.97273 -0.13892,-3.07334 2.30383,-7.755812 8.05481,-11.934152 5.75098,-4.17835 15.80747,-9.40488 25.87558,-14.67966 l 0.93296,1.28409 0.93295,1.28411 c -8.12785,7.94535 -16.20621,15.89458 -21.95718,20.072882 z"
       id="path4160"
       style="fill:url(#linearGradient4206);fill-opacity:1;stroke:#808080;stroke-width:0.99999994;stroke-miterlimit:4;stroke-opacity:1;stroke-dasharray:none" /><path
       d="m 27.963303,65.563542 c -7.64018,-2.48245 -11.90082,-6.662058 -12.82476,-10.013705 2.71755,-2.168467 8.62118,-3.045505 16.26136,-0.563059 7.64018,2.482442 19.09865,8.204984 30.60893,13.906106 l -0.55429,1.705935 -0.55429,1.705924 C 48.237193,70.15146 35.603463,68.045982 27.963303,65.563542 z"
       id="path4162"
       style="fill:url(#linearGradient4208);fill-opacity:1;stroke:#808080;stroke-width:0.99999994;stroke-miterlimit:4;stroke-opacity:1;stroke-dasharray:none" /><path
       d="m 54.986773,31.399901 c -2.48244,-7.640184 -1.6054,-13.543819 0.56306,-16.261355 3.35166,0.923952 7.53126,5.184576 10.01371,12.824755 2.48245,7.640181 4.58793,20.273902 6.7412,32.936951 l -1.70593,0.554292 -1.70593,0.554289 C 63.191763,50.49853 57.469213,39.040062 54.986773,31.399901 z"
       id="path4164"
       style="fill:url(#linearGradient4210);fill-opacity:1;stroke:#808080;stroke-width:0.99999994;stroke-miterlimit:4;stroke-opacity:1;stroke-dasharray:none" /><path
       d="m 37.995413,54.196588 c -5.75096,-4.178328 -8.19373,-8.860834 -8.0548,-11.934144 2.87998,-1.081831 8.08814,-0.205608 13.83913,3.972718 5.75098,4.178331 13.82934,12.127534 21.95717,20.07288 l -0.93295,1.284097 -0.93296,1.284108 C 53.802883,63.60145 43.746373,58.374913 37.995413,54.196588 z"
       id="path4166"
       style="fill:url(#linearGradient4212);fill-opacity:1;stroke:#808080;stroke-width:0.99999994;stroke-miterlimit:4;stroke-opacity:1;stroke-dasharray:none" /><path
       d="m 46.235163,43.779736 c -4.17833,-5.750973 -5.05456,-10.959157 -3.97273,-13.839119 3.07333,-0.138919 7.75582,2.303829 11.93416,8.054807 4.17833,5.750979 9.40487,15.80747 14.67965,25.875582 l -1.2841,0.932955 -1.2841,0.932953 C 58.362693,57.609068 50.413473,49.530702 46.235163,43.779736 z"
       id="path4168"
       style="fill:url(#linearGradient4214);fill-opacity:1;stroke:#808080;stroke-width:0.99999994;stroke-miterlimit:4;stroke-opacity:1;stroke-dasharray:none" /><path
       d="m 131.40058,68.418398 c 9.50851,0 15.83343,3.146595 18.09942,6.581598 -2.26599,3.435002 -8.59091,6.581612 -18.09942,6.581612 -9.50852,0 -24.50035,-2.25079 -39.542707,-4.45851 l 0,-2.123102 0,-2.1231 c 15.042357,-2.207707 30.034187,-4.458498 39.542707,-4.458498 z"
       id="path4170"
       style="fill:url(#linearGradient4216);fill-opacity:1;stroke:#808080;stroke-width:0.99999994;stroke-miterlimit:4;stroke-opacity:1;stroke-dasharray:none" /><path
       d="m 68.418391,131.40059 c 0,9.5085 3.146602,15.83342 6.581606,18.09941 3.435006,-2.26599 6.581606,-8.59091 6.581606,-18.09941 0,-9.50851 -2.25079,-24.50036 -4.458508,-39.542722 l -2.123098,0 -2.123099,0 c -2.207713,15.042362 -4.458507,30.034212 -4.458507,39.542722 z"
       id="path4172"
       style="fill:url(#linearGradient4218);fill-opacity:1;stroke:#808080;stroke-width:0.99999994;stroke-miterlimit:4;stroke-opacity:1;stroke-dasharray:none" /><path
       d="m 68.418391,18.599414 c 0,-9.508512 3.146602,-15.833426 6.581606,-18.099414 3.435006,2.265988 6.581606,8.590902 6.581606,18.099414 0,9.508514 -2.25079,24.500349 -4.458508,39.542709 l -2.123098,0 -2.123099,0 C 70.669185,43.099763 68.418391,28.107928 68.418391,18.599414 z"
       id="path4174"
       style="fill:url(#linearGradient4220);fill-opacity:1;stroke:#808080;stroke-width:0.99999994;stroke-miterlimit:4;stroke-opacity:1;stroke-dasharray:none" /><path
       d="m 84.436453,122.0367 c 2.48245,7.64019 6.66205,11.90082 10.01371,12.82475 2.16846,-2.71754 3.0455,-8.62116 0.56306,-16.26135 -2.48245,-7.64018 -8.20499,-19.098652 -13.90611,-30.608932 l -1.70593,0.55428 -1.70593,0.5543 c 2.15328,12.663062 4.25876,25.296782 6.7412,32.936952 z"
       id="path4176"
       style="fill:url(#linearGradient4222);fill-opacity:1;stroke:#808080;stroke-width:0.99999994;stroke-miterlimit:4;stroke-opacity:1;stroke-dasharray:none" /><path
       d="m 118.60009,95.013218 c 7.64019,2.48245 13.54383,1.60541 16.26136,-0.56305 -0.92395,-3.35166 -5.18458,-7.53126 -12.82476,-10.0137 -7.64018,-2.48246 -20.2739,-4.58794 -32.936947,-6.74121 l -0.55429,1.70593 -0.55429,1.70593 c 11.5103,5.70112 22.968767,11.42367 30.608927,13.9061 z"
       id="path4178"
       style="fill:url(#linearGradient4224);fill-opacity:1;stroke:#808080;stroke-width:0.99999994;stroke-miterlimit:4;stroke-opacity:1;stroke-dasharray:none" /><path
       d="m 95.803413,112.00458 c 4.17833,5.75097 8.860827,8.19374 11.934137,8.05481 1.08183,-2.87997 0.20561,-8.08815 -3.97272,-13.83913 C 99.586503,100.46928 91.637303,92.390918 83.691953,84.263088 l -1.2841,0.93295 -1.2841,0.93296 c 5.27479,10.06812 10.50133,20.124622 14.67966,25.875582 z"
       id="path4180"
       style="fill:url(#linearGradient4226);fill-opacity:1;stroke:#808080;stroke-width:0.99999994;stroke-miterlimit:4;stroke-opacity:1;stroke-dasharray:none" /><path
       d="m 106.22026,103.76484 c 5.75097,4.17833 10.95915,5.05456 13.83912,3.97273 0.13892,-3.07334 -2.30383,-7.755812 -8.05481,-11.934152 -5.75098,-4.17835 -15.807467,-9.40488 -25.875577,-14.67966 l -0.93296,1.28409 -0.93295,1.28411 c 8.12785,7.94535 16.206207,15.89458 21.957177,20.072882 z"
       id="path4182"
       style="fill:url(#linearGradient4228);fill-opacity:1;stroke:#808080;stroke-width:0.99999994;stroke-miterlimit:4;stroke-opacity:1;stroke-dasharray:none" /><g
       transform="translate(-22.6001,-24.0137)"
       id="g4184"
       style="stroke:#808080;stroke-opacity:1"><path
         d="m 144.6368,89.577274 c 7.64018,-2.48245 11.90082,-6.662058 12.82476,-10.013705 -2.71755,-2.168467 -8.62118,-3.045505 -16.26136,-0.563059 -7.64018,2.482442 -19.09865,8.204984 -30.60893,13.906106 l 0.55429,1.705935 0.55429,1.705924 c 12.66306,-2.153283 25.29679,-4.258761 32.93695,-6.741201 z"
         id="path4186"
         style="fill:url(#linearGradient4230);fill-opacity:1;stroke:#808080;stroke-width:0.99999994;stroke-miterlimit:4;stroke-opacity:1;stroke-dasharray:none" /><path
         d="m 117.61333,55.413633 c 2.48244,-7.640184 1.6054,-13.543819 -0.56306,-16.261355 -3.35166,0.923952 -7.53126,5.184576 -10.01371,12.824755 -2.48245,7.640181 -4.58793,20.273902 -6.7412,32.936951 l 1.70593,0.554292 1.70593,0.554289 c 5.70112,-11.510303 11.42367,-22.968771 13.90611,-30.608932 z"
         id="path4188"
         style="fill:url(#linearGradient4232);fill-opacity:1;stroke:#808080;stroke-width:0.99999994;stroke-miterlimit:4;stroke-opacity:1;stroke-dasharray:none" /><path
         d="m 134.60469,78.21032 c 5.75096,-4.178328 8.19373,-8.860834 8.0548,-11.934144 -2.87998,-1.081831 -8.08814,-0.205608 -13.83913,3.972718 -5.75098,4.178331 -13.82934,12.127534 -21.95717,20.07288 l 0.93295,1.284097 0.93296,1.284108 c 10.06812,-5.274797 20.12463,-10.501334 25.87559,-14.679659 z"
         id="path4190"
         style="fill:url(#linearGradient4234);fill-opacity:1;stroke:#808080;stroke-width:0.99999994;stroke-miterlimit:4;stroke-opacity:1;stroke-dasharray:none" /><path
         d="m 126.36494,67.793468 c 4.17833,-5.750973 5.05456,-10.959157 3.97273,-13.839119 -3.07333,-0.138919 -7.75582,2.303829 -11.93416,8.054807 -4.17833,5.750979 -9.40487,15.80747 -14.67965,25.875582 l 1.2841,0.932955 1.2841,0.932953 c 7.94535,-8.127846 15.89457,-16.206212 20.07288,-21.957178 z"
         id="path4192"
         style="fill:url(#linearGradient4236);fill-opacity:1;stroke:#808080;stroke-width:0.99999994;stroke-miterlimit:4;stroke-opacity:1;stroke-dasharray:none" /></g><path
       d="m 124.61858,95.497902 a 11.002102,11.002102 0 1 1 -22.0042,0 11.002102,11.002102 0 1 1 22.0042,0 z"
       transform="matrix(0,-1.74288,1.74288,0,-91.4417,273.02)"
       id="path4194"
       style="fill:url(#radialGradient4238);fill-opacity:1;stroke:#808080;stroke-width:0.57376182;stroke-miterlimit:4;stroke-opacity:1;stroke-dasharray:none" /><path
       d="m 124.61858,95.497902 a 11.002102,11.002102 0 1 1 -22.0042,0 11.002102,11.002102 0 1 1 22.0042,0 z"
       transform="matrix(1.15452,0,0,1.15452,-56.1727,-35.2544)"
       id="path4196"
       style="fill:url(#linearGradient4240);fill-opacity:1;stroke:#808080;stroke-width:0.86615962;stroke-miterlimit:4;stroke-opacity:1;stroke-dasharray:none" /></g></g></svg>